<?xml version="1.0" encoding="UTF-8" standalone="no"?>
<!DOCTYPE svg PUBLIC "-//W3C//DTD SVG 1.1//EN" "http://www.w3.org/Graphics/SVG/1.1/DTD/svg11.dtd">
<svg version="1.1" xmlns="http://www.w3.org/2000/svg" xmlns:xlink="http://www.w3.org/1999/xlink" preserveAspectRatio="xMidYMid meet" viewBox="0 0 640 640" width="640" height="640"><defs><path d="M519.18 259.05C514.5 265.28 510.63 271.35 505.94 272.38C501.24 273.42 495.72 269.37 490.51 265.54C485.31 261.7 480.43 258.08 478.32 252.66C476.18 247.22 476.83 240.04 480.43 235.42C484.02 230.75 490.6 228.66 495.75 229.36C500.92 230.03 504.67 233.54 510.99 235.78C517.3 238.02 526.13 238.99 527.77 242.71C529.42 246.39 523.89 252.78 519.18 259.05Z" id="a15BbyFo87"></path><path d="M341.99 338.8C310.82 356.33 295.77 360.46 279.65 350.14C263.31 339.83 245.69 315.34 249.99 278.73C254.29 242.13 280.73 193.66 320.71 188.25C360.91 182.83 414.86 220.73 417.87 255.27C421.09 289.82 373.37 321.27 341.99 338.8Z" id="h3d3MZ8Ytx"></path><path d="M119.87 469.68C111.65 474.35 100.69 469.53 88 461.49C75.24 453.45 60.67 442.27 62.55 432.33C64.42 422.39 82.73 413.84 98.24 414.71C113.74 415.59 126.5 426.04 130.11 438.39C133.71 450.67 128.16 464.92 119.87 469.68Z" id="a3EV7VPpwK"></path><path d="M121.05 170.73C123.37 174.38 122.99 179.07 119.75 182C116.46 184.92 110.25 186.04 105.45 190.17C100.65 194.34 97.3 201.52 93.3 202.16C89.31 202.84 84.61 197.03 80.13 192.78C75.65 188.57 71.33 185.96 71.44 183.04C71.55 180.11 76.14 176.9 79 174.14C81.86 171.41 83.05 169.17 85.26 164.4C87.47 159.59 90.71 152.29 94.76 151.45C98.81 150.61 103.72 156.26 108.69 160.39C113.65 164.48 118.67 167.08 121.05 170.73Z" id="aRy6CG1h9"></path><path d="M518.11 495.76C523.42 500.12 531.08 506.51 532.29 513.26C533.45 520.02 528.14 527.13 521.26 527.97C514.38 528.85 505.87 523.45 500.25 519.55C494.63 515.71 491.85 513.32 485.13 512.38C478.41 511.5 467.69 512.07 466.69 509.42C465.75 506.77 474.47 500.9 477.78 493.99C481.03 487.14 478.83 479.24 481.19 472.85C483.55 466.46 490.49 461.63 495.53 464.23C500.57 466.77 503.72 476.75 506.82 482.88C509.87 489.06 512.81 491.4 518.11 495.76Z" id="eYZ1oXp9N"></path><path d="M269.3 563.38C266.34 565.79 261.1 567.28 254.64 564.44C248.19 561.54 240.47 554.26 242.11 545.58C243.69 536.94 254.64 526.96 261.42 528.16C268.24 529.37 270.94 541.81 271.94 549.72C272.95 557.59 272.26 560.92 269.3 563.38Z" id="b9MuOQ19q"></path><path d="M554.31 346.69C547.63 351.12 538.73 346.55 528.43 338.95C518.07 331.34 506.24 320.76 507.77 311.36C509.29 301.95 524.16 293.86 536.74 294.69C549.33 295.52 559.69 305.41 562.62 317.1C565.55 328.71 561.04 342.2 554.31 346.69Z" id="g2I2G7qUM"></path><path d="M359.83 402.4C362.15 406.05 361.77 410.74 358.53 413.66C355.24 416.59 349.03 417.71 344.23 421.84C339.42 426.01 336.08 433.19 332.08 433.83C328.09 434.51 323.39 428.7 318.91 424.45C314.43 420.24 310.11 417.63 310.22 414.71C310.33 411.78 314.92 408.57 317.78 405.81C320.64 403.08 321.82 400.84 324.04 396.07C326.25 391.26 329.49 383.96 333.54 383.12C337.59 382.28 342.5 387.93 347.47 392.06C352.43 396.15 357.45 398.75 359.83 402.4Z" id="aWMMWYWSl"></path><path d="M442.61 148.75C439.65 151.16 434.41 152.66 427.95 149.81C421.5 146.92 413.77 139.64 415.41 130.95C417 122.32 427.95 112.33 434.73 113.54C441.55 114.74 444.25 127.19 445.25 135.1C446.26 142.96 445.57 146.29 442.61 148.75Z" id="b1iEd3i3sk"></path></defs><g><g><g><use xlink:href="#a15BbyFo87" opacity="1" fill="#f8c7cc" fill-opacity="1"></use><g><use xlink:href="#a15BbyFo87" opacity="1" fill-opacity="0" stroke="#000000" stroke-width="1" stroke-opacity="0"></use></g></g><g><use xlink:href="#h3d3MZ8Ytx" opacity="1" fill="#f8c7cc" fill-opacity="1"></use><g><use xlink:href="#h3d3MZ8Ytx" opacity="1" fill-opacity="0" stroke="#000000" stroke-width="1" stroke-opacity="0"></use></g></g><g><use xlink:href="#a3EV7VPpwK" opacity="1" fill="#f8c7cc" fill-opacity="1"></use><g><use xlink:href="#a3EV7VPpwK" opacity="1" fill-opacity="0" stroke="#000000" stroke-width="1" stroke-opacity="0"></use></g></g><g><use xlink:href="#aRy6CG1h9" opacity="1" fill="#f8c7cc" fill-opacity="1"></use><g><use xlink:href="#aRy6CG1h9" opacity="1" fill-opacity="0" stroke="#000000" stroke-width="1" stroke-opacity="0"></use></g></g><g><use xlink:href="#eYZ1oXp9N" opacity="1" fill="#f8c7cc" fill-opacity="1"></use><g><use xlink:href="#eYZ1oXp9N" opacity="1" fill-opacity="0" stroke="#000000" stroke-width="1" stroke-opacity="0"></use></g></g><g><use xlink:href="#b9MuOQ19q" opacity="1" fill="#f8c7cc" fill-opacity="1"></use><g><use xlink:href="#b9MuOQ19q" opacity="1" fill-opacity="0" stroke="#000000" stroke-width="1" stroke-opacity="0"></use></g></g><g><use xlink:href="#g2I2G7qUM" opacity="1" fill="#f8c7cc" fill-opacity="1"></use><g><use xlink:href="#g2I2G7qUM" opacity="1" fill-opacity="0" stroke="#000000" stroke-width="1" stroke-opacity="0"></use></g></g><g><use xlink:href="#aWMMWYWSl" opacity="1" fill="#f8c7cc" fill-opacity="1"></use><g><use xlink:href="#aWMMWYWSl" opacity="1" fill-opacity="0" stroke="#000000" stroke-width="1" stroke-opacity="0"></use></g></g><g><use xlink:href="#b1iEd3i3sk" opacity="1" fill="#f8c7cc" fill-opacity="1"></use><g><use xlink:href="#b1iEd3i3sk" opacity="1" fill-opacity="0" stroke="#000000" stroke-width="1" stroke-opacity="0"></use></g></g></g></g></svg>