<?xml version="1.0" encoding="UTF-8" standalone="no"?>
<!DOCTYPE svg PUBLIC "-//W3C//DTD SVG 1.1//EN" "http://www.w3.org/Graphics/SVG/1.1/DTD/svg11.dtd">
<svg version="1.1" xmlns="http://www.w3.org/2000/svg" xmlns:xlink="http://www.w3.org/1999/xlink" preserveAspectRatio="xMidYMid meet" viewBox="0 0 640 640" width="640" height="640"><defs><path d="M203.64 307.12C199.4 311.37 199.4 318.22 203.64 322.46C214.46 333.29 301.06 419.88 311.89 430.71C313.9 432.76 316.66 433.9 319.54 433.9C319.62 433.9 319.7 433.85 319.77 433.85C319.85 433.85 319.91 433.9 320 433.9C323.61 433.9 326.65 432.02 328.62 429.31C339.35 418.58 425.19 332.75 435.92 322.02C440.16 317.78 440.16 310.92 435.92 306.68C431.67 302.44 424.82 302.44 420.58 306.68C414.6 312.66 384.69 342.57 330.85 396.41C330.85 165.07 330.85 36.55 330.85 10.85C330.85 4.85 326 0 320 0C314 0 309.15 4.85 309.15 10.85C309.15 36.61 309.15 165.44 309.15 397.32L218.98 307.12C211.58 304.3 206.47 304.3 203.64 307.12Z" id="f1d7nRsGax"></path><path d="M385.08 184.41C385.08 190.41 389.93 195.25 395.93 195.25C405.33 195.25 452.34 195.25 536.95 195.25L536.95 618.31L103.05 618.31L103.05 195.25C187.66 195.25 234.67 195.25 244.07 195.25C250.07 195.25 254.92 190.41 254.92 184.41C254.92 178.41 250.07 173.56 244.07 173.56C233.22 173.56 178.98 173.56 81.36 173.56L81.36 640L558.64 640L558.64 173.56L395.93 173.56C388.7 176.79 385.08 180.41 385.08 184.41Z" id="a1c3H5Q4Q6"></path></defs><g><g><g><use xlink:href="#f1d7nRsGax" opacity="1" fill="#f8c7cc" fill-opacity="1"></use><g><use xlink:href="#f1d7nRsGax" opacity="1" fill-opacity="0" stroke="#000000" stroke-width="0" stroke-opacity="0"></use></g></g><g><use xlink:href="#a1c3H5Q4Q6" opacity="1" fill="#f8c7cc" fill-opacity="1"></use><g><use xlink:href="#a1c3H5Q4Q6" opacity="1" fill-opacity="0" stroke="#000000" stroke-width="0" stroke-opacity="0"></use></g></g></g></g></svg>