<?xml version="1.0" encoding="UTF-8" standalone="no"?>
<!DOCTYPE svg PUBLIC "-//W3C//DTD SVG 1.1//EN" "http://www.w3.org/Graphics/SVG/1.1/DTD/svg11.dtd">
<svg version="1.1" xmlns="http://www.w3.org/2000/svg" xmlns:xlink="http://www.w3.org/1999/xlink" preserveAspectRatio="xMidYMid meet" viewBox="0 0 640 640" width="640" height="640"><defs><path d="M14.65 320C14.65 491.19 153.31 630.48 323.73 630.48C494.16 630.48 632.81 491.19 632.81 320C632.81 148.8 494.16 9.52 323.73 9.52C153.31 9.52 14.65 148.8 14.65 320ZM179.65 455.51L179.65 264.01L243.02 264.01L243.02 455.51L179.65 455.51ZM210.92 237.86C189.67 237.86 175.93 223.15 175.93 204.77C175.93 185.99 190.1 171.69 211.76 171.69C233.44 171.69 246.79 186 247.2 204.77C247.2 223.15 233.44 237.86 211.35 237.86C211.27 237.86 210.96 237.86 210.92 237.86ZM408.16 455.51C408.16 394.03 408.16 359.88 408.16 353.05C408.16 327.3 398.98 309.76 376.05 309.76C358.55 309.76 348.13 321.59 343.54 333.04C341.86 337.12 341.45 342.83 341.45 348.55C341.45 355.68 341.45 391.33 341.45 455.5C303.42 455.5 282.29 455.5 278.07 455.5C278.07 455.5 278.91 281.96 278.07 264C282.29 264 303.42 264 341.45 264C341.45 280.27 341.45 289.3 341.45 291.11C349.87 278.07 364.93 259.49 398.56 259.49C440.26 259.49 471.5 286.86 471.5 345.7C471.5 353.02 471.5 389.62 471.5 455.51L471.52 455.51L408.16 455.51Z" id="aYUxo5dh"></path><path d="M288.28 261.34C288.2 261.46 288.12 261.6 288.04 261.72C288.06 261.72 288.13 261.72 288.28 261.72C288.28 261.49 288.28 261.36 288.28 261.34Z" id="blylUY3tv"></path></defs><g><g><g><use xlink:href="#aYUxo5dh" opacity="1" fill="#db5461" fill-opacity="1"></use><g><use xlink:href="#aYUxo5dh" opacity="1" fill-opacity="0" stroke="#000000" stroke-width="0" stroke-opacity="0"></use></g></g><g><use xlink:href="#blylUY3tv" opacity="1" fill="#000000" fill-opacity="1"></use><g><use xlink:href="#blylUY3tv" opacity="1" fill-opacity="0" stroke="#000000" stroke-width="1" stroke-opacity="0"></use></g></g></g></g></svg>