<?xml version="1.0" encoding="UTF-8" standalone="no"?>
<!DOCTYPE svg PUBLIC "-//W3C//DTD SVG 1.1//EN" "http://www.w3.org/Graphics/SVG/1.1/DTD/svg11.dtd">
<svg version="1.1" xmlns="http://www.w3.org/2000/svg" xmlns:xlink="http://www.w3.org/1999/xlink" preserveAspectRatio="xMidYMid meet" viewBox="0 0 640 640" width="640" height="640"><defs><path d="M0 320C0 496.46 143.57 640 320 640C496.46 640 640 496.46 640 320C640 143.54 496.43 0 320 0C143.57 0 0 143.54 0 320ZM49.57 320C49.57 170.88 170.88 49.57 320 49.57C469.12 49.57 590.43 170.88 590.43 320C590.43 469.12 469.12 590.43 320 590.43C170.88 590.43 49.57 469.12 49.57 320Z" id="a17GS3kxSd"></path><path d="M196.07 295.21C182.38 295.21 171.28 306.32 171.28 320C171.28 333.68 182.38 344.79 196.06 344.79C220.85 344.79 419.15 344.79 443.93 344.79C457.62 344.79 468.72 333.68 468.72 320C468.72 306.32 457.62 295.21 443.94 295.21C394.36 295.21 220.85 295.21 196.07 295.21Z" id="aeWnrkl8y"></path></defs><g><g><g><use xlink:href="#a17GS3kxSd" opacity="1" fill="#db5461" fill-opacity="1"></use><g><use xlink:href="#a17GS3kxSd" opacity="1" fill-opacity="0" stroke="#000000" stroke-width="1" stroke-opacity="0"></use></g></g><g><use xlink:href="#aeWnrkl8y" opacity="1" fill="#db5461" fill-opacity="1"></use><g><use xlink:href="#aeWnrkl8y" opacity="1" fill-opacity="0" stroke="#000000" stroke-width="1" stroke-opacity="0"></use></g></g></g></g></svg>