<?xml version="1.0" encoding="UTF-8" standalone="no"?>
<!DOCTYPE svg PUBLIC "-//W3C//DTD SVG 1.1//EN" "http://www.w3.org/Graphics/SVG/1.1/DTD/svg11.dtd">
<svg version="1.1" xmlns="http://www.w3.org/2000/svg" xmlns:xlink="http://www.w3.org/1999/xlink" preserveAspectRatio="xMidYMid meet" viewBox="0 0 640 640" width="640" height="640"><defs><path d="M190.43 428.21L241.95 428.21L241.95 570.66L3.67 570.66L3.67 428.21L51.97 428.21L51.97 206.4L3.67 206.4L3.67 63.93L190.84 63.93L319.87 264.08L449.17 63.93L636.33 63.93L636.33 206.4L588.03 206.4L588.03 428.21L636.33 428.21L636.33 570.66L398.06 570.66L398.06 428.21L449.57 428.21L449.57 283.94L319.23 482.28L190.43 283.94L190.43 428.21Z" id="c2ydxQxeew"></path><path d="M190.43 428.21L241.95 428.21L241.95 570.66L3.67 570.66L3.67 428.21L51.97 428.21L51.97 206.4L3.67 206.4L3.67 63.93L190.84 63.93L319.87 264.08L449.17 63.93L636.33 63.93L636.33 206.4L588.03 206.4L588.03 428.21L636.33 428.21L636.33 570.66L398.06 570.66L398.06 428.21L449.57 428.21L449.57 283.94L319.23 482.28L190.43 283.94L190.43 428.21Z" id="e4LSFsBjc"></path></defs><g><g><g><use xlink:href="#c2ydxQxeew" opacity="1" fill="#ffcb05" fill-opacity="1"></use><g><use xlink:href="#c2ydxQxeew" opacity="1" fill-opacity="0" stroke="#000000" stroke-width="1" stroke-opacity="0"></use></g></g><g><use xlink:href="#e4LSFsBjc" opacity="1" fill="#000000" fill-opacity="0"></use><g><use xlink:href="#e4LSFsBjc" opacity="1" fill-opacity="0" stroke="#000000" stroke-width="1" stroke-opacity="0"></use></g></g></g></g></svg>