<?xml version="1.0" encoding="utf-8"?>
<svg xmlns="http://www.w3.org/2000/svg" xmlns:xlink="http://www.w3.org/1999/xlink" style="margin: auto; background: rgb(41, 47, 54); display: block; z-index: 1; position: relative; shape-rendering: auto;" width="1080" height="920" preserveAspectRatio="xMidYMid" viewBox="0 0 1080 920">
<g transform=""><path d="M-100 59.1C-78.48 75.61 -76.73 68.4 -58.71 68.4S-37.93 62.58 -17.42 62.58S4.02 67 23.87 67S44.86 60.41 65.16 60.41S87.87 57.48 106.45 57.48S129.35 47.51 147.74 47.51S170.28 55.87 189.03 55.87S210.31 59.91 230.32 59.91S252.92 60.99 271.61 60.99S292.38 48.37 312.9 48.37S334.82 59.91 354.19 59.91S377.32 52.58 395.48 52.58S418.1 56.87 436.77 56.87S458.39 47.36 478.06 47.36S501.23 65.64 519.35 65.64S541.5 62.36 560.65 62.36S583.32 61.17 601.94 61.17S623.14 75.21 643.23 75.21S665.12 59.86 684.52 59.86S705.35 53.42 725.81 53.42S746.49 48.34 767.1 48.34S789.38 71.69 808.39 71.69S831.77 52.78 849.68 52.78S870.93 62.52 890.97 62.52S913.26 47.52 932.26 47.52S955.08 48.74 973.55 48.74S996.47 47.77 1014.84 47.77S1037.09 72.65 1056.13 72.65S1076.84 64.78 1097.42 64.78S1119.79 69.56 1138.71 69.56S1162.23 51.03 1180 51.03S1201.97 48.86 1221.29 48.86L1180 920 L-100 920 Z" fill="#292f36" stroke-width="0">
  <animate attributeName="d" dur="25s" repeatCount="indefinite" values="M-100 59.1C-78.48 75.61 -76.73 68.4 -58.71 68.4S-37.93 62.58 -17.42 62.58S4.02 67 23.87 67S44.86 60.41 65.16 60.41S87.87 57.48 106.45 57.48S129.35 47.51 147.74 47.51S170.28 55.87 189.03 55.87S210.31 59.91 230.32 59.91S252.92 60.99 271.61 60.99S292.38 48.37 312.9 48.37S334.82 59.91 354.19 59.91S377.32 52.58 395.48 52.58S418.1 56.87 436.77 56.87S458.39 47.36 478.06 47.36S501.23 65.64 519.35 65.64S541.5 62.36 560.65 62.36S583.32 61.17 601.94 61.17S623.14 75.21 643.23 75.21S665.12 59.86 684.52 59.86S705.35 53.42 725.81 53.42S746.49 48.34 767.1 48.34S789.38 71.69 808.39 71.69S831.77 52.78 849.68 52.78S870.93 62.52 890.97 62.52S913.26 47.52 932.26 47.52S955.08 48.74 973.55 48.74S996.47 47.77 1014.84 47.77S1037.09 72.65 1056.13 72.65S1076.84 64.78 1097.42 64.78S1119.79 69.56 1138.71 69.56S1162.23 51.03 1180 51.03S1201.97 48.86 1221.29 48.86L1180 920 L-100 920 Z;M-100 63.76C-78.72 53.79 -78.95 75.55 -58.71 75.55S-35.91 59.8 -17.42 59.8S3.43 50.5 23.87 50.5S44.65 58.13 65.16 58.13S85.88 55.33 106.45 55.33S128.87 68.16 147.74 68.16S170.14 51 189.03 51S210.18 71.34 230.32 71.34S252.39 61.6 271.61 61.6S293.73 60.53 312.9 60.53S335.2 62.59 354.19 62.59S377.76 61.21 395.48 61.21S417.27 72.4 436.77 72.4S459.46 74.84 478.06 74.84S499.55 47.7 519.35 47.7S542.89 64.9 560.65 64.9S581.62 54.26 601.94 54.26S625.58 69.27 643.23 69.27S664.46 68.08 684.52 68.08S708.03 52.89 725.81 52.89S747.9 75.52 767.1 75.52S789.42 64.48 808.39 64.48S829.78 48.8 849.68 48.8S871.34 64.08 890.97 64.08S913.54 55.24 932.26 55.24S954 70.5 973.55 70.5S994.59 55.77 1014.84 55.77S1036.08 75.29 1056.13 75.29S1078.3 76.76 1097.42 76.76S1119.08 73.19 1138.71 73.19S1160.42 53.25 1180 53.25S1203.53 71.9 1221.29 71.9L1180 920 L-100 920 Z;M-100 59.1C-78.48 75.61 -76.73 68.4 -58.71 68.4S-37.93 62.58 -17.42 62.58S4.02 67 23.87 67S44.86 60.41 65.16 60.41S87.87 57.48 106.45 57.48S129.35 47.51 147.74 47.51S170.28 55.87 189.03 55.87S210.31 59.91 230.32 59.91S252.92 60.99 271.61 60.99S292.38 48.37 312.9 48.37S334.82 59.91 354.19 59.91S377.32 52.58 395.48 52.58S418.1 56.87 436.77 56.87S458.39 47.36 478.06 47.36S501.23 65.64 519.35 65.64S541.5 62.36 560.65 62.36S583.32 61.17 601.94 61.17S623.14 75.21 643.23 75.21S665.12 59.86 684.52 59.86S705.35 53.42 725.81 53.42S746.49 48.34 767.1 48.34S789.38 71.69 808.39 71.69S831.77 52.78 849.68 52.78S870.93 62.52 890.97 62.52S913.26 47.52 932.26 47.52S955.08 48.74 973.55 48.74S996.47 47.77 1014.84 47.77S1037.09 72.65 1056.13 72.65S1076.84 64.78 1097.42 64.78S1119.79 69.56 1138.71 69.56S1162.23 51.03 1180 51.03S1201.97 48.86 1221.29 48.86L1180 920 L-100 920 Z"></animate>
  <animateTransform attributeName="transform" type="translate" dur="25s" begin="0s" repeatCount="indefinite" values="0;10;0" calcMode="spline" keySplines="0.3 0 0.7 1;0.3 0 0.7 1"></animateTransform>
</path><path d="M-100 81.61C-76.76 90.68 -77.28 85.79 -57.62 85.79S-33.98 77.15 -15.23 77.15S6.81 79.36 27.15 79.36S51.46 99.45 69.54 99.45S92.3 99.02 111.92 99.02S135.99 100.05 154.3 100.05S176.05 106.45 196.69 106.45S218.67 88.23 239.07 88.23S261.87 93.41 281.46 93.41S302.81 84.15 323.84 84.15S346.01 81.03 366.23 81.03S390.53 96.94 408.61 96.94S432.5 105.22 450.99 105.22S473.98 76.9 493.38 76.9S516.62 103.66 535.76 103.66S558.33 99.74 578.15 99.74S600.88 79.2 620.53 79.2S644.33 75.3 662.91 75.3S685.67 93.61 705.3 93.61S728.03 94.62 747.68 94.62S771.22 98.85 790.07 98.85S811.47 81.48 832.45 81.48S856.32 92.47 874.83 92.47S896.75 89.58 917.22 89.58S938.64 86.55 959.6 86.55S981.63 75.22 1001.99 75.22S1023.83 98.67 1044.37 98.67S1065.7 77.15 1086.75 77.15S1109.23 92.61 1129.14 92.61S1152.95 95.22 1171.52 95.22S1193.46 89.78 1213.91 89.78L1180 920 L-100 920 Z" fill="#343d46" stroke-width="0">
  <animate attributeName="d" dur="22.5s" repeatCount="indefinite" values="M-100 81.61C-76.76 90.68 -77.28 85.79 -57.62 85.79S-33.98 77.15 -15.23 77.15S6.81 79.36 27.15 79.36S51.46 99.45 69.54 99.45S92.3 99.02 111.92 99.02S135.99 100.05 154.3 100.05S176.05 106.45 196.69 106.45S218.67 88.23 239.07 88.23S261.87 93.41 281.46 93.41S302.81 84.15 323.84 84.15S346.01 81.03 366.23 81.03S390.53 96.94 408.61 96.94S432.5 105.22 450.99 105.22S473.98 76.9 493.38 76.9S516.62 103.66 535.76 103.66S558.33 99.74 578.15 99.74S600.88 79.2 620.53 79.2S644.33 75.3 662.91 75.3S685.67 93.61 705.3 93.61S728.03 94.62 747.68 94.62S771.22 98.85 790.07 98.85S811.47 81.48 832.45 81.48S856.32 92.47 874.83 92.47S896.75 89.58 917.22 89.58S938.64 86.55 959.6 86.55S981.63 75.22 1001.99 75.22S1023.83 98.67 1044.37 98.67S1065.7 77.15 1086.75 77.15S1109.23 92.61 1129.14 92.61S1152.95 95.22 1171.52 95.22S1193.46 89.78 1213.91 89.78L1180 920 L-100 920 Z;M-100 97.25C-76.71 76.81 -77.68 92.27 -57.62 92.27S-34.39 95.53 -15.23 95.53S8.34 96.71 27.15 96.71S49.2 78.61 69.54 78.61S92.71 88.16 111.92 88.16S136.09 85.42 154.3 85.42S176.59 79.67 196.69 79.67S220.37 88.66 239.07 88.66S262.36 100.96 281.46 100.96S305.28 87.29 323.84 87.29S346.69 75.98 366.23 75.98S387.64 97.64 408.61 97.64S430.18 97.37 450.99 97.37S474.11 89.42 493.38 89.42S515.05 79.77 535.76 79.77S558.02 80.35 578.15 80.35S599.67 98.68 620.53 98.68S643.36 75.67 662.91 75.67S686.95 84.8 705.3 84.8S727.41 76.99 747.68 76.99S770.6 83.78 790.07 83.78S813.18 98.15 832.45 98.15S856.25 105.09 874.83 105.09S898.93 73.18 917.22 73.18S938.72 84.29 959.6 84.29S982.26 80.37 1001.99 80.37S1024.34 92.93 1044.37 92.93S1068.43 84.83 1086.75 84.83S1109.06 88.02 1129.14 88.02S1152.45 92.64 1171.52 92.64S1195.3 77.23 1213.91 77.23L1180 920 L-100 920 Z;M-100 81.61C-76.76 90.68 -77.28 85.79 -57.62 85.79S-33.98 77.15 -15.23 77.15S6.81 79.36 27.15 79.36S51.46 99.45 69.54 99.45S92.3 99.02 111.92 99.02S135.99 100.05 154.3 100.05S176.05 106.45 196.69 106.45S218.67 88.23 239.07 88.23S261.87 93.41 281.46 93.41S302.81 84.15 323.84 84.15S346.01 81.03 366.23 81.03S390.53 96.94 408.61 96.94S432.5 105.22 450.99 105.22S473.98 76.9 493.38 76.9S516.62 103.66 535.76 103.66S558.33 99.74 578.15 99.74S600.88 79.2 620.53 79.2S644.33 75.3 662.91 75.3S685.67 93.61 705.3 93.61S728.03 94.62 747.68 94.62S771.22 98.85 790.07 98.85S811.47 81.48 832.45 81.48S856.32 92.47 874.83 92.47S896.75 89.58 917.22 89.58S938.64 86.55 959.6 86.55S981.63 75.22 1001.99 75.22S1023.83 98.67 1044.37 98.67S1065.7 77.15 1086.75 77.15S1109.23 92.61 1129.14 92.61S1152.95 95.22 1171.52 95.22S1193.46 89.78 1213.91 89.78L1180 920 L-100 920 Z"></animate>
  <animateTransform attributeName="transform" type="translate" dur="22.5s" begin="-2.25s" repeatCount="indefinite" values="0;10;0" calcMode="spline" keySplines="0.3 0 0.7 1;0.3 0 0.7 1"></animateTransform>
</path><path d="M-100 105.3C-77.7 130.03 -77.06 117.74 -56.46 117.74S-33.07 101.43 -12.93 101.43S11.47 124.02 30.61 124.02S54.16 110.61 74.15 110.61S95.96 113.16 117.69 113.16S142.49 126.99 161.22 126.99S185.2 111.29 204.76 111.29S228.66 97.64 248.3 97.64S272.98 131.36 291.84 131.36S316.38 135.77 335.37 135.77S358.25 122.03 378.91 122.03S403 104.75 422.45 104.75S446.53 132.44 465.99 132.44S490.48 108.53 509.52 108.53S534.1 109.45 553.06 109.45S575.74 102.14 596.6 102.14S620.86 107.88 640.14 107.88S664.34 110.76 683.67 110.76S708.44 114.06 727.21 114.06S749.24 118.8 770.75 118.8S794.93 121.45 814.29 121.45S836.42 118.32 857.82 118.32S880.89 94.79 901.36 94.79S924.82 119.84 944.9 119.84S968.2 112.03 988.44 112.03S1011.6 101.31 1031.97 101.31S1056.28 113.53 1075.51 113.53S1098.43 95.05 1119.05 95.05S1141.77 117.88 1162.59 117.88S1186.61 115.31 1206.12 115.31L1180 920 L-100 920 Z" fill="#404c56" stroke-width="0">
  <animate attributeName="d" dur="20s" repeatCount="indefinite" values="M-100 105.3C-77.7 130.03 -77.06 117.74 -56.46 117.74S-33.07 101.43 -12.93 101.43S11.47 124.02 30.61 124.02S54.16 110.61 74.15 110.61S95.96 113.16 117.69 113.16S142.49 126.99 161.22 126.99S185.2 111.29 204.76 111.29S228.66 97.64 248.3 97.64S272.98 131.36 291.84 131.36S316.38 135.77 335.37 135.77S358.25 122.03 378.91 122.03S403 104.75 422.45 104.75S446.53 132.44 465.99 132.44S490.48 108.53 509.52 108.53S534.1 109.45 553.06 109.45S575.74 102.14 596.6 102.14S620.86 107.88 640.14 107.88S664.34 110.76 683.67 110.76S708.44 114.06 727.21 114.06S749.24 118.8 770.75 118.8S794.93 121.45 814.29 121.45S836.42 118.32 857.82 118.32S880.89 94.79 901.36 94.79S924.82 119.84 944.9 119.84S968.2 112.03 988.44 112.03S1011.6 101.31 1031.97 101.31S1056.28 113.53 1075.51 113.53S1098.43 95.05 1119.05 95.05S1141.77 117.88 1162.59 117.88S1186.61 115.31 1206.12 115.31L1180 920 L-100 920 Z;M-100 118.65C-77.76 96.23 -78.17 110.89 -56.46 110.89S-33.91 113.66 -12.93 113.66S9.44 129.22 30.61 129.22S54.69 109.03 74.15 109.03S97.09 115.08 117.69 115.08S140.41 115.47 161.22 115.47S185.22 132.65 204.76 132.65S228.58 95.95 248.3 95.95S270.8 121.46 291.84 121.46S314.07 113.48 335.37 113.48S358.35 119.25 378.91 119.25S401.48 95.07 422.45 95.07S447.31 116.83 465.99 116.83S490.36 97.43 509.52 97.43S531.44 134.25 553.06 134.25S576.86 113.07 596.6 113.07S618.64 112.36 640.14 112.36S664.34 95.13 683.67 95.13S707.39 111.88 727.21 111.88S749.76 123.05 770.75 123.05S793.59 106.55 814.29 106.55S836.46 92.14 857.82 92.14S880.2 122.99 901.36 122.99S924.44 104.3 944.9 104.3S969.09 105.51 988.44 105.51S1012.06 118.29 1031.97 118.29S1056.11 127.28 1075.51 127.28S1098.07 97.32 1119.05 97.32S1142.12 121.37 1162.59 121.37S1184.5 92.38 1206.12 92.38L1180 920 L-100 920 Z;M-100 105.3C-77.7 130.03 -77.06 117.74 -56.46 117.74S-33.07 101.43 -12.93 101.43S11.47 124.02 30.61 124.02S54.16 110.61 74.15 110.61S95.96 113.16 117.69 113.16S142.49 126.99 161.22 126.99S185.2 111.29 204.76 111.29S228.66 97.64 248.3 97.64S272.98 131.36 291.84 131.36S316.38 135.77 335.37 135.77S358.25 122.03 378.91 122.03S403 104.75 422.45 104.75S446.53 132.44 465.99 132.44S490.48 108.53 509.52 108.53S534.1 109.45 553.06 109.45S575.74 102.14 596.6 102.14S620.86 107.88 640.14 107.88S664.34 110.76 683.67 110.76S708.44 114.06 727.21 114.06S749.24 118.8 770.75 118.8S794.93 121.45 814.29 121.45S836.42 118.32 857.82 118.32S880.89 94.79 901.36 94.79S924.82 119.84 944.9 119.84S968.2 112.03 988.44 112.03S1011.6 101.31 1031.97 101.31S1056.28 113.53 1075.51 113.53S1098.43 95.05 1119.05 95.05S1141.77 117.88 1162.59 117.88S1186.61 115.31 1206.12 115.31L1180 920 L-100 920 Z"></animate>
  <animateTransform attributeName="transform" type="translate" dur="20s" begin="-4s" repeatCount="indefinite" values="0;10;0" calcMode="spline" keySplines="0.3 0 0.7 1;0.3 0 0.7 1"></animateTransform>
</path><path d="M-100 131.01C-76.32 133.78 -77.21 159.31 -55.24 159.31S-30.61 142.15 -10.49 142.15S13.69 144.26 34.27 144.26S56.87 136.37 79.02 136.37S103.29 145.67 123.78 145.67S147.77 130.63 168.53 130.63S191.43 147.53 213.29 147.53S236.74 117.05 258.04 117.05S280.62 135.9 302.8 135.9S326.27 123.4 347.55 123.4S372.08 138.35 392.31 138.35S415.41 129.02 437.06 129.02S460.21 154.71 481.82 154.71S504.47 119.75 526.57 119.75S549.22 153.65 571.33 153.65S594.99 127.74 616.08 127.74S639.94 120.24 660.84 120.24S685.56 128.05 705.59 128.05S730.2 147.82 750.35 147.82S774.62 134.57 795.1 134.57S820.11 138.92 839.86 138.92S862.89 136.75 884.62 136.75S907.41 134.89 929.37 134.89S953.86 155.93 974.13 155.93S997.33 138.57 1018.88 138.57S1043.76 137.55 1063.64 137.55S1086.46 146.42 1108.39 146.42S1131.71 137.04 1153.15 137.04S1176.67 151.33 1197.9 151.33L1180 920 L-100 920 Z" fill="#4b5b66" stroke-width="0">
  <animate attributeName="d" dur="17.5s" repeatCount="indefinite" values="M-100 131.01C-76.32 133.78 -77.21 159.31 -55.24 159.31S-30.61 142.15 -10.49 142.15S13.69 144.26 34.27 144.26S56.87 136.37 79.02 136.37S103.29 145.67 123.78 145.67S147.77 130.63 168.53 130.63S191.43 147.53 213.29 147.53S236.74 117.05 258.04 117.05S280.62 135.9 302.8 135.9S326.27 123.4 347.55 123.4S372.08 138.35 392.31 138.35S415.41 129.02 437.06 129.02S460.21 154.71 481.82 154.71S504.47 119.75 526.57 119.75S549.22 153.65 571.33 153.65S594.99 127.74 616.08 127.74S639.94 120.24 660.84 120.24S685.56 128.05 705.59 128.05S730.2 147.82 750.35 147.82S774.62 134.57 795.1 134.57S820.11 138.92 839.86 138.92S862.89 136.75 884.62 136.75S907.41 134.89 929.37 134.89S953.86 155.93 974.13 155.93S997.33 138.57 1018.88 138.57S1043.76 137.55 1063.64 137.55S1086.46 146.42 1108.39 146.42S1131.71 137.04 1153.15 137.04S1176.67 151.33 1197.9 151.33L1180 920 L-100 920 Z;M-100 128.26C-76.44 130.21 -75.97 164.94 -55.24 164.94S-31.17 117.62 -10.49 117.62S12.76 147.13 34.27 147.13S57.88 139.45 79.02 139.45S103.03 161.28 123.78 161.28S147.7 134.21 168.53 134.21S192.95 159.5 213.29 159.5S236.46 134.97 258.04 134.97S282.62 151.47 302.8 151.47S327.35 118.07 347.55 118.07S371.24 136.94 392.31 136.94S416.7 132.7 437.06 132.7S462.31 130.76 481.82 130.76S504.33 145.93 526.57 145.93S551.51 157.36 571.33 157.36S593.97 137.66 616.08 137.66S639.06 162.38 660.84 162.38S685.15 127.69 705.59 127.69S729.75 117.51 750.35 117.51S773.07 131.59 795.1 131.59S820.21 148.75 839.86 148.75S863.04 142.03 884.62 142.03S908.15 160.61 929.37 160.61S953.4 125.65 974.13 125.65S999.03 156.44 1018.88 156.44S1042.35 139.68 1063.64 139.68S1086.46 133.1 1108.39 133.1S1131.32 141.48 1153.15 141.48S1177.23 157.36 1197.9 157.36L1180 920 L-100 920 Z;M-100 131.01C-76.32 133.78 -77.21 159.31 -55.24 159.31S-30.61 142.15 -10.49 142.15S13.69 144.26 34.27 144.26S56.87 136.37 79.02 136.37S103.29 145.67 123.78 145.67S147.77 130.63 168.53 130.63S191.43 147.53 213.29 147.53S236.74 117.05 258.04 117.05S280.62 135.9 302.8 135.9S326.27 123.4 347.55 123.4S372.08 138.35 392.31 138.35S415.41 129.02 437.06 129.02S460.21 154.71 481.82 154.71S504.47 119.75 526.57 119.75S549.22 153.65 571.33 153.65S594.99 127.74 616.08 127.74S639.94 120.24 660.84 120.24S685.56 128.05 705.59 128.05S730.2 147.82 750.35 147.82S774.62 134.57 795.1 134.57S820.11 138.92 839.86 138.92S862.89 136.75 884.62 136.75S907.41 134.89 929.37 134.89S953.86 155.93 974.13 155.93S997.33 138.57 1018.88 138.57S1043.76 137.55 1063.64 137.55S1086.46 146.42 1108.39 146.42S1131.71 137.04 1153.15 137.04S1176.67 151.33 1197.9 151.33L1180 920 L-100 920 Z"></animate>
  <animateTransform attributeName="transform" type="translate" dur="17.5s" begin="-5.25s" repeatCount="indefinite" values="0;10;0" calcMode="spline" keySplines="0.3 0 0.7 1;0.3 0 0.7 1"></animateTransform>
</path><path d="M-100 154.28C-74.85 147.28 -75 188.82 -53.96 188.82S-30.27 176.16 -7.91 176.16S17.15 174.59 38.13 174.59S62.49 160.71 84.17 160.71S107.78 171.65 130.22 171.65S153.66 164.49 176.26 164.49S200.56 169.43 222.3 169.43S247.08 189.35 268.35 189.35S291.64 164.89 314.39 164.89S337.77 168.03 360.43 168.03S385.42 178.93 406.47 178.93S432.39 178.81 452.52 178.81S478.55 183.49 498.56 183.49S523.56 193.71 544.6 193.71S569.61 143.67 590.65 143.67S614.97 161.67 636.69 161.67S662.2 189.75 682.73 189.75S706.43 164.91 728.78 164.91S752.6 173.46 774.82 173.46S798.67 183.84 820.86 183.84S845.94 182.08 866.91 182.08S891.01 140.23 912.95 140.23S937.5 159.43 958.99 159.43S983.15 145.81 1005.04 145.81S1030.06 179.88 1051.08 179.88S1075.68 161.58 1097.12 161.58S1122.83 165.21 1143.17 165.21S1168.26 153.32 1189.21 153.32L1180 920 L-100 920 Z" fill="#576b76" stroke-width="0">
  <animate attributeName="d" dur="15s" repeatCount="indefinite" values="M-100 154.28C-74.85 147.28 -75 188.82 -53.96 188.82S-30.27 176.16 -7.91 176.16S17.15 174.59 38.13 174.59S62.49 160.71 84.17 160.71S107.78 171.65 130.22 171.65S153.66 164.49 176.26 164.49S200.56 169.43 222.3 169.43S247.08 189.35 268.35 189.35S291.64 164.89 314.39 164.89S337.77 168.03 360.43 168.03S385.42 178.93 406.47 178.93S432.39 178.81 452.52 178.81S478.55 183.49 498.56 183.49S523.56 193.71 544.6 193.71S569.61 143.67 590.65 143.67S614.97 161.67 636.69 161.67S662.2 189.75 682.73 189.75S706.43 164.91 728.78 164.91S752.6 173.46 774.82 173.46S798.67 183.84 820.86 183.84S845.94 182.08 866.91 182.08S891.01 140.23 912.95 140.23S937.5 159.43 958.99 159.43S983.15 145.81 1005.04 145.81S1030.06 179.88 1051.08 179.88S1075.68 161.58 1097.12 161.58S1122.83 165.21 1143.17 165.21S1168.26 153.32 1189.21 153.32L1180 920 L-100 920 Z;M-100 143.77C-74.19 166.55 -76.01 183.97 -53.96 183.97S-30.47 156.46 -7.91 156.46S16.13 179.91 38.13 179.91S63.62 181.21 84.17 181.21S107.71 187.21 130.22 187.21S153.33 160.19 176.26 160.19S202.24 177.79 222.3 177.79S247.42 157.09 268.35 157.09S291.61 166.35 314.39 166.35S338.08 169.75 360.43 169.75S385.61 170.1 406.47 170.1S429.63 155.22 452.52 155.22S477.04 169.66 498.56 169.66S523.84 148.67 544.6 148.67S568.46 170.4 590.65 170.4S616.63 152.02 636.69 152.02S661.92 166.27 682.73 166.27S706.2 138.07 728.78 138.07S754.28 164.56 774.82 164.56S799.85 180.17 820.86 180.17S846.89 165.11 866.91 165.11S891.49 174.83 912.95 174.83S937.84 138.84 958.99 138.84S982.93 163.11 1005.04 163.11S1029.57 172.56 1051.08 172.56S1074.15 141.47 1097.12 141.47S1122.85 174.38 1143.17 174.38S1167.86 147.92 1189.21 147.92L1180 920 L-100 920 Z;M-100 154.28C-74.85 147.28 -75 188.82 -53.96 188.82S-30.27 176.16 -7.91 176.16S17.15 174.59 38.13 174.59S62.49 160.71 84.17 160.71S107.78 171.65 130.22 171.65S153.66 164.49 176.26 164.49S200.56 169.43 222.3 169.43S247.08 189.35 268.35 189.35S291.64 164.89 314.39 164.89S337.77 168.03 360.43 168.03S385.42 178.93 406.47 178.93S432.39 178.81 452.52 178.81S478.55 183.49 498.56 183.49S523.56 193.71 544.6 193.71S569.61 143.67 590.65 143.67S614.97 161.67 636.69 161.67S662.2 189.75 682.73 189.75S706.43 164.91 728.78 164.91S752.6 173.46 774.82 173.46S798.67 183.84 820.86 183.84S845.94 182.08 866.91 182.08S891.01 140.23 912.95 140.23S937.5 159.43 958.99 159.43S983.15 145.81 1005.04 145.81S1030.06 179.88 1051.08 179.88S1075.68 161.58 1097.12 161.58S1122.83 165.21 1143.17 165.21S1168.26 153.32 1189.21 153.32L1180 920 L-100 920 Z"></animate>
  <animateTransform attributeName="transform" type="translate" dur="15s" begin="-6s" repeatCount="indefinite" values="0;10;0" calcMode="spline" keySplines="0.3 0 0.7 1;0.3 0 0.7 1"></animateTransform>
</path><path d="M-100 166.79C-75.93 182.51 -75.2 198.44 -52.59 198.44S-26.96 168.21 -5.19 168.21S19.31 211.75 42.22 211.75S66.21 161.83 89.63 161.83S114 200.28 137.04 200.28S162.06 162.13 184.44 162.13S210.24 187.27 231.85 187.27S257.09 166.89 279.26 166.89S303.16 165.01 326.67 165.01S352.8 189.11 374.07 189.11S400.32 213.63 421.48 213.63S445.55 223.57 468.89 223.57S495.65 220.69 516.3 220.69S542.57 171.21 563.7 171.21S588.48 201.79 611.11 201.79S636.81 190.43 658.52 190.43S682.8 218.72 705.93 218.72S729.98 172.03 753.33 172.03S778.93 212.87 800.74 212.87S827.39 208.38 848.15 208.38S874.35 210.28 895.56 210.28S922.29 180.11 942.96 180.11S969.41 211.82 990.37 211.82S1015.6 172.75 1037.78 172.75S1064.25 217.23 1085.19 217.23S1109.37 184.82 1132.59 184.82S1157.95 216.13 1180 216.13S1206.26 195.93 1227.41 195.93L1180 920 L-100 920 Z" fill="#637b87" stroke-width="0">
  <animate attributeName="d" dur="12.5s" repeatCount="indefinite" values="M-100 166.79C-75.93 182.51 -75.2 198.44 -52.59 198.44S-26.96 168.21 -5.19 168.21S19.31 211.75 42.22 211.75S66.21 161.83 89.63 161.83S114 200.28 137.04 200.28S162.06 162.13 184.44 162.13S210.24 187.27 231.85 187.27S257.09 166.89 279.26 166.89S303.16 165.01 326.67 165.01S352.8 189.11 374.07 189.11S400.32 213.63 421.48 213.63S445.55 223.57 468.89 223.57S495.65 220.69 516.3 220.69S542.57 171.21 563.7 171.21S588.48 201.79 611.11 201.79S636.81 190.43 658.52 190.43S682.8 218.72 705.93 218.72S729.98 172.03 753.33 172.03S778.93 212.87 800.74 212.87S827.39 208.38 848.15 208.38S874.35 210.28 895.56 210.28S922.29 180.11 942.96 180.11S969.41 211.82 990.37 211.82S1015.6 172.75 1037.78 172.75S1064.25 217.23 1085.19 217.23S1109.37 184.82 1132.59 184.82S1157.95 216.13 1180 216.13S1206.26 195.93 1227.41 195.93L1180 920 L-100 920 Z;M-100 182.85C-74.74 168.46 -74.4 208.69 -52.59 208.69S-27.38 174.75 -5.19 174.75S20.01 194.64 42.22 194.64S68.27 177.34 89.63 177.34S115.42 222.87 137.04 222.87S161.11 163.21 184.44 163.21S209.98 224.1 231.85 224.1S256.55 190.08 279.26 190.08S305 201.11 326.67 201.11S353.2 162.9 374.07 162.9S398.91 204.1 421.48 204.1S447.89 186.97 468.89 186.97S495.69 193.81 516.3 193.81S540.85 185.16 563.7 185.16S587.91 207.75 611.11 207.75S635.25 163.82 658.52 163.82S683.99 198.66 705.93 198.66S730.78 163.74 753.33 163.74S777.43 219.69 800.74 219.69S826.91 182.82 848.15 182.82S872.13 213.35 895.56 213.35S919.68 220.67 942.96 220.67S968.12 193.95 990.37 193.95S1015.66 161.74 1037.78 161.74S1062.25 196.98 1085.19 196.98S1110.58 205.72 1132.59 205.72S1156.98 210.17 1180 210.17S1205.43 173.69 1227.41 173.69L1180 920 L-100 920 Z;M-100 166.79C-75.93 182.51 -75.2 198.44 -52.59 198.44S-26.96 168.21 -5.19 168.21S19.31 211.75 42.22 211.75S66.21 161.83 89.63 161.83S114 200.28 137.04 200.28S162.06 162.13 184.44 162.13S210.24 187.27 231.85 187.27S257.09 166.89 279.26 166.89S303.16 165.01 326.67 165.01S352.8 189.11 374.07 189.11S400.32 213.63 421.48 213.63S445.55 223.57 468.89 223.57S495.65 220.69 516.3 220.69S542.57 171.21 563.7 171.21S588.48 201.79 611.11 201.79S636.81 190.43 658.52 190.43S682.8 218.72 705.93 218.72S729.98 172.03 753.33 172.03S778.93 212.87 800.74 212.87S827.39 208.38 848.15 208.38S874.35 210.28 895.56 210.28S922.29 180.11 942.96 180.11S969.41 211.82 990.37 211.82S1015.6 172.75 1037.78 172.75S1064.25 217.23 1085.19 217.23S1109.37 184.82 1132.59 184.82S1157.95 216.13 1180 216.13S1206.26 195.93 1227.41 195.93L1180 920 L-100 920 Z"></animate>
  <animateTransform attributeName="transform" type="translate" dur="12.5s" begin="-6.25s" repeatCount="indefinite" values="0;10;0" calcMode="spline" keySplines="0.3 0 0.7 1;0.3 0 0.7 1"></animateTransform>
</path><path d="M-100 189.79C-72.8 201.57 -74.21 246.13 -51.15 246.13S-24.61 224.07 -2.29 224.07S25.05 235.26 46.56 235.26S73.27 205.4 95.42 205.4S121.12 253.9 144.27 253.9S169.65 206.05 193.13 206.05S219.13 241.41 241.98 241.41S269.13 212.41 290.84 212.41S315.55 249.3 339.69 249.3S366.49 241.38 388.55 241.38S413.68 203.35 437.4 203.35S462.17 211.02 486.26 211.02S511.25 240.03 535.11 240.03S561.07 208.18 583.97 208.18S609.47 210.56 632.82 210.56S659.93 206.27 681.68 206.27S708.15 228 730.53 228S756.38 188.02 779.39 188.02S805.36 235.59 828.24 235.59S855.57 211.98 877.1 211.98S904.29 225.2 925.95 225.2S953.31 253.92 974.81 253.92S1000.19 197.36 1023.66 197.36S1050.62 197.11 1072.52 197.11S1098.72 238.17 1121.37 238.17S1147.7 190.99 1170.23 190.99S1197.37 229.84 1219.08 229.84L1180 920 L-100 920 Z" fill="#6f8c98" stroke-width="0">
  <animate attributeName="d" dur="10s" repeatCount="indefinite" values="M-100 189.79C-72.8 201.57 -74.21 246.13 -51.15 246.13S-24.61 224.07 -2.29 224.07S25.05 235.26 46.56 235.26S73.27 205.4 95.42 205.4S121.12 253.9 144.27 253.9S169.65 206.05 193.13 206.05S219.13 241.41 241.98 241.41S269.13 212.41 290.84 212.41S315.55 249.3 339.69 249.3S366.49 241.38 388.55 241.38S413.68 203.35 437.4 203.35S462.17 211.02 486.26 211.02S511.25 240.03 535.11 240.03S561.07 208.18 583.97 208.18S609.47 210.56 632.82 210.56S659.93 206.27 681.68 206.27S708.15 228 730.53 228S756.38 188.02 779.39 188.02S805.36 235.59 828.24 235.59S855.57 211.98 877.1 211.98S904.29 225.2 925.95 225.2S953.31 253.92 974.81 253.92S1000.19 197.36 1023.66 197.36S1050.62 197.11 1072.52 197.11S1098.72 238.17 1121.37 238.17S1147.7 190.99 1170.23 190.99S1197.37 229.84 1219.08 229.84L1180 920 L-100 920 Z;M-100 205.13C-75.02 190.1 -72.76 238.33 -51.15 238.33S-26.08 198.55 -2.29 198.55S24.09 226.68 46.56 226.68S73.61 214.23 95.42 214.23S122.06 242.46 144.27 242.46S168.82 199.45 193.13 199.45S220.16 226.64 241.98 226.64S267.75 214.85 290.84 214.85S315.64 248.55 339.69 248.55S364.97 187.35 388.55 187.35S413.47 252.76 437.4 252.76S463.97 230.78 486.26 230.78S512.08 214.18 535.11 214.18S560.94 247.48 583.97 247.48S611.42 253.42 632.82 253.42S658.81 200.76 681.68 200.76S708.78 245.42 730.53 245.42S756.43 224.71 779.39 224.71S805.16 208.99 828.24 208.99S853.14 184.08 877.1 184.08S904.18 247.01 925.95 247.01S953.22 189.18 974.81 189.18S1000.54 248.26 1023.66 248.26S1051.09 206.58 1072.52 206.58S1098.65 226.27 1121.37 226.27S1146.05 192.04 1170.23 192.04S1197.23 236.11 1219.08 236.11L1180 920 L-100 920 Z;M-100 189.79C-72.8 201.57 -74.21 246.13 -51.15 246.13S-24.61 224.07 -2.29 224.07S25.05 235.26 46.56 235.26S73.27 205.4 95.42 205.4S121.12 253.9 144.27 253.9S169.65 206.05 193.13 206.05S219.13 241.41 241.98 241.41S269.13 212.41 290.84 212.41S315.55 249.3 339.69 249.3S366.49 241.38 388.55 241.38S413.68 203.35 437.4 203.35S462.17 211.02 486.26 211.02S511.25 240.03 535.11 240.03S561.07 208.18 583.97 208.18S609.47 210.56 632.82 210.56S659.93 206.27 681.68 206.27S708.15 228 730.53 228S756.38 188.02 779.39 188.02S805.36 235.59 828.24 235.59S855.57 211.98 877.1 211.98S904.29 225.2 925.95 225.2S953.31 253.92 974.81 253.92S1000.19 197.36 1023.66 197.36S1050.62 197.11 1072.52 197.11S1098.72 238.17 1121.37 238.17S1147.7 190.99 1170.23 190.99S1197.37 229.84 1219.08 229.84L1180 920 L-100 920 Z"></animate>
  <animateTransform attributeName="transform" type="translate" dur="10s" begin="-6s" repeatCount="indefinite" values="0;10;0" calcMode="spline" keySplines="0.3 0 0.7 1;0.3 0 0.7 1"></animateTransform>
</path><path d="M-100 212.09C-72.01 227.14 -73.72 261.13 -49.61 261.13S-24.37 213.49 0.79 213.49S26.3 279.49 51.18 279.49S76.45 213.42 101.57 213.42S129.7 264.85 151.97 264.85S177.96 275.92 202.36 275.92S229.66 226.03 252.76 226.03S278.34 214.67 303.15 214.67S331.14 255.67 353.54 255.67S379.23 219.7 403.94 219.7S429.19 217.41 454.33 217.41S482.64 218.39 504.72 218.39S531.7 272.02 555.12 272.02S581.04 223.3 605.51 223.3S630.78 276.74 655.91 276.74S683.69 220.91 706.3 220.91S732.47 273.95 756.69 273.95S784.36 211.68 807.09 211.68S834.51 264.75 857.48 264.75S884.07 256.11 907.87 256.11S934.84 264.54 958.27 264.54S986.08 224.64 1008.66 224.64S1035.52 280.43 1059.06 280.43S1086.82 227.72 1109.45 227.72S1136.82 262.41 1159.84 262.41S1186.2 221.31 1210.24 221.31L1180 920 L-100 920 Z" fill="#7b9da9" stroke-width="0">
  <animate attributeName="d" dur="7.5s" repeatCount="indefinite" values="M-100 212.09C-72.01 227.14 -73.72 261.13 -49.61 261.13S-24.37 213.49 0.79 213.49S26.3 279.49 51.18 279.49S76.45 213.42 101.57 213.42S129.7 264.85 151.97 264.85S177.96 275.92 202.36 275.92S229.66 226.03 252.76 226.03S278.34 214.67 303.15 214.67S331.14 255.67 353.54 255.67S379.23 219.7 403.94 219.7S429.19 217.41 454.33 217.41S482.64 218.39 504.72 218.39S531.7 272.02 555.12 272.02S581.04 223.3 605.51 223.3S630.78 276.74 655.91 276.74S683.69 220.91 706.3 220.91S732.47 273.95 756.69 273.95S784.36 211.68 807.09 211.68S834.51 264.75 857.48 264.75S884.07 256.11 907.87 256.11S934.84 264.54 958.27 264.54S986.08 224.64 1008.66 224.64S1035.52 280.43 1059.06 280.43S1086.82 227.72 1109.45 227.72S1136.82 262.41 1159.84 262.41S1186.2 221.31 1210.24 221.31L1180 920 L-100 920 Z;M-100 212.91C-73.57 219.69 -72.92 259.86 -49.61 259.86S-22.74 220.24 0.79 220.24S28.9 275.07 51.18 275.07S78.27 225.55 101.57 225.55S127 282.68 151.97 282.68S177.36 223.17 202.36 223.17S228.35 253.1 252.76 253.1S280.1 219.23 303.15 219.23S329.71 272.86 353.54 272.86S379.34 222.24 403.94 222.24S430.63 283.44 454.33 283.44S479.71 226.74 504.72 226.74S530.91 253.8 555.12 253.8S580.63 215.84 605.51 215.84S630.92 282.93 655.91 282.93S682.34 276.06 706.3 276.06S732.91 270.07 756.69 270.07S782.27 215.26 807.09 215.26S833.54 275.93 857.48 275.93S885.13 234.69 907.87 234.69S933.89 281.3 958.27 281.3S985.44 270.93 1008.66 270.93S1036.71 220.26 1059.06 220.26S1085.74 229.92 1109.45 229.92S1134.9 273.53 1159.84 273.53S1187.23 217.22 1210.24 217.22L1180 920 L-100 920 Z;M-100 212.09C-72.01 227.14 -73.72 261.13 -49.61 261.13S-24.37 213.49 0.79 213.49S26.3 279.49 51.18 279.49S76.45 213.42 101.57 213.42S129.7 264.85 151.97 264.85S177.96 275.92 202.36 275.92S229.66 226.03 252.76 226.03S278.34 214.67 303.15 214.67S331.14 255.67 353.54 255.67S379.23 219.7 403.94 219.7S429.19 217.41 454.33 217.41S482.64 218.39 504.72 218.39S531.7 272.02 555.12 272.02S581.04 223.3 605.51 223.3S630.78 276.74 655.91 276.74S683.69 220.91 706.3 220.91S732.47 273.95 756.69 273.95S784.36 211.68 807.09 211.68S834.51 264.75 857.48 264.75S884.07 256.11 907.87 256.11S934.84 264.54 958.27 264.54S986.08 224.64 1008.66 224.64S1035.52 280.43 1059.06 280.43S1086.82 227.72 1109.45 227.72S1136.82 262.41 1159.84 262.41S1186.2 221.31 1210.24 221.31L1180 920 L-100 920 Z"></animate>
  <animateTransform attributeName="transform" type="translate" dur="7.5s" begin="-5.25s" repeatCount="indefinite" values="0;10;0" calcMode="spline" keySplines="0.3 0 0.7 1;0.3 0 0.7 1"></animateTransform>
</path><path d="M-100 258.91C-73.59 255.76 -71.31 311.51 -47.97 311.51S-20.82 239.34 4.07 239.34S32.32 310.1 56.1 310.1S85 243.42 108.13 243.42S134.82 248.1 160.16 248.1S187.35 255.69 212.2 255.69S239.19 307.79 264.23 307.79S290.45 246.7 316.26 246.7S343.2 288.18 368.29 288.18S396.23 257.36 420.33 257.36S446.54 292.49 472.36 292.49S498.54 258.02 524.39 258.02S553.42 234.55 576.42 234.55S603.29 254.76 628.46 254.76S654.84 238.62 680.49 238.62S706.78 260.92 732.52 260.92S759.79 309.41 784.55 309.41S812.64 244.41 836.59 244.41S865.01 286.6 888.62 286.6S916.07 247.38 940.65 247.38S969.58 291.95 992.68 291.95S1021.04 300.06 1044.72 300.06S1073.8 299.15 1096.75 299.15S1123.83 237.19 1148.78 237.19S1176.24 293.96 1200.81 293.96L1180 920 L-100 920 Z" fill="#87aeba" stroke-width="0">
  <animate attributeName="d" dur="5s" repeatCount="indefinite" values="M-100 258.91C-73.59 255.76 -71.31 311.51 -47.97 311.51S-20.82 239.34 4.07 239.34S32.32 310.1 56.1 310.1S85 243.42 108.13 243.42S134.82 248.1 160.16 248.1S187.35 255.69 212.2 255.69S239.19 307.79 264.23 307.79S290.45 246.7 316.26 246.7S343.2 288.18 368.29 288.18S396.23 257.36 420.33 257.36S446.54 292.49 472.36 292.49S498.54 258.02 524.39 258.02S553.42 234.55 576.42 234.55S603.29 254.76 628.46 254.76S654.84 238.62 680.49 238.62S706.78 260.92 732.52 260.92S759.79 309.41 784.55 309.41S812.64 244.41 836.59 244.41S865.01 286.6 888.62 286.6S916.07 247.38 940.65 247.38S969.58 291.95 992.68 291.95S1021.04 300.06 1044.72 300.06S1073.8 299.15 1096.75 299.15S1123.83 237.19 1148.78 237.19S1176.24 293.96 1200.81 293.96L1180 920 L-100 920 Z;M-100 296.67C-72.59 309.21 -73.37 307.78 -47.97 307.78S-19.98 243.69 4.07 243.69S32.48 256.84 56.1 256.84S83.8 301.88 108.13 301.88S137.13 302.23 160.16 302.23S186.34 241.95 212.2 241.95S238.99 293.57 264.23 293.57S293.23 246.81 316.26 246.81S343.62 294.77 368.29 294.77S396.84 256.71 420.33 256.71S449.1 295.84 472.36 295.84S500.83 257.33 524.39 257.33S552.6 309.11 576.42 309.11S604.55 243.76 628.46 243.76S657.05 283.22 680.49 283.22S707.26 299.24 732.52 299.24S759.95 300.87 784.55 300.87S811.16 257.29 836.59 257.29S863.3 291.57 888.62 291.57S917.54 304.66 940.65 304.66S966.87 309.44 992.68 309.44S1021.04 302.15 1044.72 302.15S1073.06 304.57 1096.75 304.57S1125.72 259.94 1148.78 259.94S1177.45 248.54 1200.81 248.54L1180 920 L-100 920 Z;M-100 258.91C-73.59 255.76 -71.31 311.51 -47.97 311.51S-20.82 239.34 4.07 239.34S32.32 310.1 56.1 310.1S85 243.42 108.13 243.42S134.82 248.1 160.16 248.1S187.35 255.69 212.2 255.69S239.19 307.79 264.23 307.79S290.45 246.7 316.26 246.7S343.2 288.18 368.29 288.18S396.23 257.36 420.33 257.36S446.54 292.49 472.36 292.49S498.54 258.02 524.39 258.02S553.42 234.55 576.42 234.55S603.29 254.76 628.46 254.76S654.84 238.62 680.49 238.62S706.78 260.92 732.52 260.92S759.79 309.41 784.55 309.41S812.64 244.41 836.59 244.41S865.01 286.6 888.62 286.6S916.07 247.38 940.65 247.38S969.58 291.95 992.68 291.95S1021.04 300.06 1044.72 300.06S1073.8 299.15 1096.75 299.15S1123.83 237.19 1148.78 237.19S1176.24 293.96 1200.81 293.96L1180 920 L-100 920 Z"></animate>
  <animateTransform attributeName="transform" type="translate" dur="5s" begin="-4s" repeatCount="indefinite" values="0;10;0" calcMode="spline" keySplines="0.3 0 0.7 1;0.3 0 0.7 1"></animateTransform>
</path><path d="M-100 264.64C-70.57 258.99 -70.64 326.71 -46.22 326.71S-18.47 268.05 7.56 268.05S37.57 255.68 61.34 255.68S89.2 281.31 115.13 281.31S142.57 341.91 168.91 341.91S196.88 274.54 222.69 274.54S249.77 323.76 276.47 323.76S305.99 272.05 330.25 272.05S359.77 339.86 384.03 339.86S411.12 324.35 437.82 324.35S467.56 331.65 491.6 331.65S521.36 281.31 545.38 281.31S572.78 312.34 599.16 312.34S627.89 275.41 652.94 275.41S682.86 315.99 706.72 315.99S735.53 282.48 760.5 282.48S788.46 256.13 814.29 256.13S842.48 268.92 868.07 268.92S896.93 320.03 921.85 320.03S951.29 256.77 975.63 256.77S1003.94 315.62 1029.41 315.62S1056.49 253.59 1083.19 253.59S1111.07 330.66 1136.97 330.66S1165.44 280.86 1190.76 280.86L1180 920 L-100 920 Z" fill="#93c0ca" stroke-width="0">
  <animate attributeName="d" dur="2.5s" repeatCount="indefinite" values="M-100 264.64C-70.57 258.99 -70.64 326.71 -46.22 326.71S-18.47 268.05 7.56 268.05S37.57 255.68 61.34 255.68S89.2 281.31 115.13 281.31S142.57 341.91 168.91 341.91S196.88 274.54 222.69 274.54S249.77 323.76 276.47 323.76S305.99 272.05 330.25 272.05S359.77 339.86 384.03 339.86S411.12 324.35 437.82 324.35S467.56 331.65 491.6 331.65S521.36 281.31 545.38 281.31S572.78 312.34 599.16 312.34S627.89 275.41 652.94 275.41S682.86 315.99 706.72 315.99S735.53 282.48 760.5 282.48S788.46 256.13 814.29 256.13S842.48 268.92 868.07 268.92S896.93 320.03 921.85 320.03S951.29 256.77 975.63 256.77S1003.94 315.62 1029.41 315.62S1056.49 253.59 1083.19 253.59S1111.07 330.66 1136.97 330.66S1165.44 280.86 1190.76 280.86L1180 920 L-100 920 Z;M-100 266.58C-71.1 262.33 -70.63 319.19 -46.22 319.19S-16.37 334.08 7.56 334.08S36.46 258.27 61.34 258.27S91.27 281.12 115.13 281.12S143.55 280.19 168.91 280.19S198.35 260.96 222.69 260.96S252 323.13 276.47 323.13S304.84 268.29 330.25 268.29S358.46 260.21 384.03 260.21S413.1 264.78 437.82 264.78S464.76 279.76 491.6 279.76S519.96 273.1 545.38 273.1S575.11 327.51 599.16 327.51S629.11 282.56 652.94 282.56S680.92 318.95 706.72 318.95S733.99 255.25 760.5 255.25S788.06 255.35 814.29 255.35S842.2 313.36 868.07 313.36S898.07 328.84 921.85 328.84S951.79 255.05 975.63 255.05S1004.69 338.32 1029.41 338.32S1057.73 276.01 1083.19 276.01S1110.48 330.59 1136.97 330.59S1165.89 266.96 1190.76 266.96L1180 920 L-100 920 Z;M-100 264.64C-70.57 258.99 -70.64 326.71 -46.22 326.71S-18.47 268.05 7.56 268.05S37.57 255.68 61.34 255.68S89.2 281.31 115.13 281.31S142.57 341.91 168.91 341.91S196.88 274.54 222.69 274.54S249.77 323.76 276.47 323.76S305.99 272.05 330.25 272.05S359.77 339.86 384.03 339.86S411.12 324.35 437.82 324.35S467.56 331.65 491.6 331.65S521.36 281.31 545.38 281.31S572.78 312.34 599.16 312.34S627.89 275.41 652.94 275.41S682.86 315.99 706.72 315.99S735.53 282.48 760.5 282.48S788.46 256.13 814.29 256.13S842.48 268.92 868.07 268.92S896.93 320.03 921.85 320.03S951.29 256.77 975.63 256.77S1003.94 315.62 1029.41 315.62S1056.49 253.59 1083.19 253.59S1111.07 330.66 1136.97 330.66S1165.44 280.86 1190.76 280.86L1180 920 L-100 920 Z"></animate>
  <animateTransform attributeName="transform" type="translate" dur="2.5s" begin="-2.25s" repeatCount="indefinite" values="0;10;0" calcMode="spline" keySplines="0.3 0 0.7 1;0.3 0 0.7 1"></animateTransform>
</path></g>
</svg>