<?xml version="1.0" encoding="utf-8"?>
<svg xmlns="http://www.w3.org/2000/svg" xmlns:xlink="http://www.w3.org/1999/xlink" style="margin: auto; background: rgb(241, 242, 243); display: block; z-index: 1; position: relative; shape-rendering: auto;" width="1920" height="1080" preserveAspectRatio="xMidYMid" viewBox="0 0 1920 1080">
<g transform=""><path d="M-100 230.6C-64.34 240.38 -63.71 237.53 -31.61 237.53S5.22 232.23 36.77 232.23S72.75 238.77 105.16 238.77S139.83 236.24 173.55 236.24S209.22 219.82 241.94 219.82S278.5 216.56 310.32 216.56S344.89 239.28 378.71 239.28S414.83 218.91 447.1 218.91S483.9 225.33 515.48 225.33S549.77 230.97 583.87 230.97S618.8 219.75 652.26 219.75S688.24 227.1 720.65 227.1S756.06 228.36 789.03 228.36S823.94 232.58 857.42 232.58S893.01 216.08 925.81 216.08S962.04 237.48 994.19 237.48S1029.68 219 1062.58 219S1097.35 242.76 1130.97 242.76S1166.5 236.88 1199.35 236.88S1235.25 218.72 1267.74 218.72S1302.19 241.36 1336.13 241.36S1372.36 242.53 1404.52 242.53S1439.94 235.08 1472.9 235.08S1509.67 226.66 1541.29 226.66S1576.04 220.11 1609.68 220.11S1644.21 232.65 1678.06 232.65S1714.31 235.46 1746.45 235.46S1781.52 229.4 1814.84 229.4S1849.32 231.64 1883.23 231.64S1918.31 237.42 1951.61 237.42S1986.65 232.82 2020 232.82S2055.2 228.19 2088.39 228.19L2020 1080 L-100 1080 Z" fill="#0f3135" stroke-width="0">
  <animate attributeName="d" dur="25s" repeatCount="indefinite" values="M-100 230.6C-64.34 240.38 -63.71 237.53 -31.61 237.53S5.22 232.23 36.77 232.23S72.75 238.77 105.16 238.77S139.83 236.24 173.55 236.24S209.22 219.82 241.94 219.82S278.5 216.56 310.32 216.56S344.89 239.28 378.71 239.28S414.83 218.91 447.1 218.91S483.9 225.33 515.48 225.33S549.77 230.97 583.87 230.97S618.8 219.75 652.26 219.75S688.24 227.1 720.65 227.1S756.06 228.36 789.03 228.36S823.94 232.58 857.42 232.58S893.01 216.08 925.81 216.08S962.04 237.48 994.19 237.48S1029.68 219 1062.58 219S1097.35 242.76 1130.97 242.76S1166.5 236.88 1199.35 236.88S1235.25 218.72 1267.74 218.72S1302.19 241.36 1336.13 241.36S1372.36 242.53 1404.52 242.53S1439.94 235.08 1472.9 235.08S1509.67 226.66 1541.29 226.66S1576.04 220.11 1609.68 220.11S1644.21 232.65 1678.06 232.65S1714.31 235.46 1746.45 235.46S1781.52 229.4 1814.84 229.4S1849.32 231.64 1883.23 231.64S1918.31 237.42 1951.61 237.42S1986.65 232.82 2020 232.82S2055.2 228.19 2088.39 228.19L2020 1080 L-100 1080 Z;M-100 235.82C-63.79 218.52 -63.53 234.79 -31.61 234.79S4.37 218.37 36.77 218.37S73.43 226.77 105.16 226.77S141.8 226.99 173.55 226.99S209.37 232.24 241.94 232.24S276.16 219.46 310.32 219.46S345.07 238.27 378.71 238.27S414.44 242.54 447.1 242.54S481.84 219.38 515.48 219.38S549.73 228.99 583.87 228.99S619.78 239.83 652.26 239.83S687.29 235.82 720.65 235.82S755.94 218.95 789.03 218.95S824.67 229.95 857.42 229.95S891.9 242.08 925.81 242.08S962.52 239.45 994.19 239.45S1029.93 228.61 1062.58 228.61S1098.89 241.24 1130.97 241.24S1166.73 221.75 1199.35 221.75S1234.8 216.15 1267.74 216.15S1303.04 219.03 1336.13 219.03S1371.32 217.89 1404.52 217.89S1439.81 234.51 1472.9 234.51S1508.23 222.75 1541.29 222.75S1578.01 241.6 1609.68 241.6S1645.76 241.37 1678.06 241.37S1714.8 235.3 1746.45 235.3S1781.94 236.8 1814.84 236.8S1849.1 219.55 1883.23 219.55S1919.05 237.51 1951.61 237.51S1986.32 222.2 2020 222.2S2054.72 234.4 2088.39 234.4L2020 1080 L-100 1080 Z;M-100 230.6C-64.34 240.38 -63.71 237.53 -31.61 237.53S5.22 232.23 36.77 232.23S72.75 238.77 105.16 238.77S139.83 236.24 173.55 236.24S209.22 219.82 241.94 219.82S278.5 216.56 310.32 216.56S344.89 239.28 378.71 239.28S414.83 218.91 447.1 218.91S483.9 225.33 515.48 225.33S549.77 230.97 583.87 230.97S618.8 219.75 652.26 219.75S688.24 227.1 720.65 227.1S756.06 228.36 789.03 228.36S823.94 232.58 857.42 232.58S893.01 216.08 925.81 216.08S962.04 237.48 994.19 237.48S1029.68 219 1062.58 219S1097.35 242.76 1130.97 242.76S1166.5 236.88 1199.35 236.88S1235.25 218.72 1267.74 218.72S1302.19 241.36 1336.13 241.36S1372.36 242.53 1404.52 242.53S1439.94 235.08 1472.9 235.08S1509.67 226.66 1541.29 226.66S1576.04 220.11 1609.68 220.11S1644.21 232.65 1678.06 232.65S1714.31 235.46 1746.45 235.46S1781.52 229.4 1814.84 229.4S1849.32 231.64 1883.23 231.64S1918.31 237.42 1951.61 237.42S1986.65 232.82 2020 232.82S2055.2 228.19 2088.39 228.19L2020 1080 L-100 1080 Z"></animate>
  <animateTransform attributeName="transform" type="translate" dur="25s" begin="0s" repeatCount="indefinite" values="0;10;0" calcMode="spline" keySplines="0.3 0 0.7 1;0.3 0 0.7 1"></animateTransform>
</path><path d="M-100 246.36C-62.34 254.51 -63.33 273.11 -29.8 273.11S6.92 244.09 40.4 244.09S77.73 255.58 110.6 255.58S146.42 264.68 180.79 264.68S216.06 261.81 250.99 261.81S286.29 262.75 321.19 262.75S356.9 252.3 391.39 252.3S427.33 254.46 461.59 254.46S499.23 261.72 531.79 261.72S566.99 244.06 601.99 244.06S638.47 259.96 672.19 259.96S707.67 249.5 742.38 249.5S778.4 268.09 812.58 268.09S848.09 265.44 882.78 265.44S918.78 274.26 952.98 274.26S988.7 263.25 1023.18 263.25S1058.65 272.67 1093.38 272.67S1130.37 251.65 1163.58 251.65S1201.04 267.18 1233.77 267.18S1270.98 257.29 1303.97 257.29S1339.87 251.54 1374.17 251.54S1409.32 257.13 1444.37 257.13S1480.24 261.4 1514.57 261.4S1551.24 273.93 1584.77 273.93S1620.49 254.59 1654.97 254.59S1692.68 256.07 1725.17 256.07S1761.27 263.42 1795.36 263.42S1830.98 265.92 1865.56 265.92S1901.98 255.57 1935.76 255.57S1971.66 248.16 2005.96 248.16S2041.81 255.3 2076.16 255.3L2020 1080 L-100 1080 Z" fill="#1d3f44" stroke-width="0">
  <animate attributeName="d" dur="22.5s" repeatCount="indefinite" values="M-100 246.36C-62.34 254.51 -63.33 273.11 -29.8 273.11S6.92 244.09 40.4 244.09S77.73 255.58 110.6 255.58S146.42 264.68 180.79 264.68S216.06 261.81 250.99 261.81S286.29 262.75 321.19 262.75S356.9 252.3 391.39 252.3S427.33 254.46 461.59 254.46S499.23 261.72 531.79 261.72S566.99 244.06 601.99 244.06S638.47 259.96 672.19 259.96S707.67 249.5 742.38 249.5S778.4 268.09 812.58 268.09S848.09 265.44 882.78 265.44S918.78 274.26 952.98 274.26S988.7 263.25 1023.18 263.25S1058.65 272.67 1093.38 272.67S1130.37 251.65 1163.58 251.65S1201.04 267.18 1233.77 267.18S1270.98 257.29 1303.97 257.29S1339.87 251.54 1374.17 251.54S1409.32 257.13 1444.37 257.13S1480.24 261.4 1514.57 261.4S1551.24 273.93 1584.77 273.93S1620.49 254.59 1654.97 254.59S1692.68 256.07 1725.17 256.07S1761.27 263.42 1795.36 263.42S1830.98 265.92 1865.56 265.92S1901.98 255.57 1935.76 255.57S1971.66 248.16 2005.96 248.16S2041.81 255.3 2076.16 255.3L2020 1080 L-100 1080 Z;M-100 264.87C-63.78 249.09 -62.32 255.36 -29.8 255.36S6.48 244.21 40.4 244.21S78.01 253.18 110.6 253.18S148.08 252 180.79 252S216.57 267.01 250.99 267.01S287.19 259.96 321.19 259.96S356.53 253.03 391.39 253.03S428.04 269 461.59 269S498.06 259.33 531.79 259.33S567.04 252.71 601.99 252.71S638.75 266.45 672.19 266.45S709.42 246.46 742.38 246.46S778.76 261.26 812.58 261.26S849.29 259.51 882.78 259.51S919.01 261.14 952.98 261.14S988.99 250.11 1023.18 250.11S1059.03 252.96 1093.38 252.96S1129.21 266 1163.58 266S1199.71 271.79 1233.77 271.79S1271.42 265.22 1303.97 265.22S1341.72 258.06 1374.17 258.06S1409.94 249.61 1444.37 249.61S1481.89 254.98 1514.57 254.98S1552.26 259.4 1584.77 259.4S1621.03 271.53 1654.97 271.53S1691.41 257.47 1725.17 257.47S1761.8 271.75 1795.36 271.75S1831.7 263.3 1865.56 263.3S1901.9 254.88 1935.76 254.88S1970.93 257.39 2005.96 257.39S2042.57 274.29 2076.16 274.29L2020 1080 L-100 1080 Z;M-100 246.36C-62.34 254.51 -63.33 273.11 -29.8 273.11S6.92 244.09 40.4 244.09S77.73 255.58 110.6 255.58S146.42 264.68 180.79 264.68S216.06 261.81 250.99 261.81S286.29 262.75 321.19 262.75S356.9 252.3 391.39 252.3S427.33 254.46 461.59 254.46S499.23 261.72 531.79 261.72S566.99 244.06 601.99 244.06S638.47 259.96 672.19 259.96S707.67 249.5 742.38 249.5S778.4 268.09 812.58 268.09S848.09 265.44 882.78 265.44S918.78 274.26 952.98 274.26S988.7 263.25 1023.18 263.25S1058.65 272.67 1093.38 272.67S1130.37 251.65 1163.58 251.65S1201.04 267.18 1233.77 267.18S1270.98 257.29 1303.97 257.29S1339.87 251.54 1374.17 251.54S1409.32 257.13 1444.37 257.13S1480.24 261.4 1514.57 261.4S1551.24 273.93 1584.77 273.93S1620.49 254.59 1654.97 254.59S1692.68 256.07 1725.17 256.07S1761.27 263.42 1795.36 263.42S1830.98 265.92 1865.56 265.92S1901.98 255.57 1935.76 255.57S1971.66 248.16 2005.96 248.16S2041.81 255.3 2076.16 255.3L2020 1080 L-100 1080 Z"></animate>
  <animateTransform attributeName="transform" type="translate" dur="22.5s" begin="-2.25s" repeatCount="indefinite" values="0;10;0" calcMode="spline" keySplines="0.3 0 0.7 1;0.3 0 0.7 1"></animateTransform>
</path><path d="M-100 284.57C-61.34 278.83 -63.83 275.48 -27.89 275.48S10.02 281.21 44.22 281.21S81.26 302.43 116.33 302.43S154.67 292.57 188.44 292.57S226.47 289.63 260.54 289.63S297.64 276 332.65 276S370.83 297.85 404.76 297.85S441.21 286.83 476.87 286.83S515.37 293.48 548.98 293.48S586.28 295.88 621.09 295.88S659.71 298.1 693.2 298.1S730.73 279.62 765.31 279.62S803.93 306.12 837.41 306.12S875.07 293.29 909.52 293.29S948.16 272.42 981.63 272.42S1020.05 281.42 1053.74 281.42S1092.42 292.32 1125.85 292.32S1162.02 284.46 1197.96 284.46S1235.6 291.35 1270.07 291.35S1308.09 300.51 1342.18 300.51S1379.41 291.88 1414.29 291.88S1452.74 272.45 1486.39 272.45S1524.48 301.97 1558.5 301.97S1595.4 294.69 1630.61 294.69S1668.44 277.41 1702.72 277.41S1739.78 280.15 1774.83 280.15S1812.34 287.91 1846.94 287.91S1884.68 304.32 1919.05 304.32S1957.13 292.3 1991.16 292.3S2029.28 284.98 2063.27 284.98L2020 1080 L-100 1080 Z" fill="#2a4e53" stroke-width="0">
  <animate attributeName="d" dur="20s" repeatCount="indefinite" values="M-100 284.57C-61.34 278.83 -63.83 275.48 -27.89 275.48S10.02 281.21 44.22 281.21S81.26 302.43 116.33 302.43S154.67 292.57 188.44 292.57S226.47 289.63 260.54 289.63S297.64 276 332.65 276S370.83 297.85 404.76 297.85S441.21 286.83 476.87 286.83S515.37 293.48 548.98 293.48S586.28 295.88 621.09 295.88S659.71 298.1 693.2 298.1S730.73 279.62 765.31 279.62S803.93 306.12 837.41 306.12S875.07 293.29 909.52 293.29S948.16 272.42 981.63 272.42S1020.05 281.42 1053.74 281.42S1092.42 292.32 1125.85 292.32S1162.02 284.46 1197.96 284.46S1235.6 291.35 1270.07 291.35S1308.09 300.51 1342.18 300.51S1379.41 291.88 1414.29 291.88S1452.74 272.45 1486.39 272.45S1524.48 301.97 1558.5 301.97S1595.4 294.69 1630.61 294.69S1668.44 277.41 1702.72 277.41S1739.78 280.15 1774.83 280.15S1812.34 287.91 1846.94 287.91S1884.68 304.32 1919.05 304.32S1957.13 292.3 1991.16 292.3S2029.28 284.98 2063.27 284.98L2020 1080 L-100 1080 Z;M-100 275.64C-63.28 270 -63.83 281.15 -27.89 281.15S8.62 284.81 44.22 284.81S81.54 280.09 116.33 280.09S152.74 275.86 188.44 275.86S225.94 301.52 260.54 301.52S298.31 280.24 332.65 280.24S371.35 288.58 404.76 288.58S442.24 271.55 476.87 271.55S514.67 302.91 548.98 302.91S586.01 278.61 621.09 278.61S659.25 306.45 693.2 306.45S730.36 290.36 765.31 290.36S801.99 295.89 837.41 295.89S873.93 270.93 909.52 270.93S946.97 296.18 981.63 296.18S1018.72 279.12 1053.74 279.12S1090.56 287.11 1125.85 287.11S1164.01 284.64 1197.96 284.64S1236.58 279.26 1270.07 279.26S1306.97 295.71 1342.18 295.71S1379.17 307.58 1414.29 307.58S1452.18 288.31 1486.39 288.31S1522.59 305.81 1558.5 305.81S1596.27 284.8 1630.61 284.8S1666.89 292.96 1702.72 292.96S1740.18 300.62 1774.83 300.62S1812.43 286.05 1846.94 286.05S1885.37 287.77 1919.05 287.77S1955.89 298.72 1991.16 298.72S2029.78 295.6 2063.27 295.6L2020 1080 L-100 1080 Z;M-100 284.57C-61.34 278.83 -63.83 275.48 -27.89 275.48S10.02 281.21 44.22 281.21S81.26 302.43 116.33 302.43S154.67 292.57 188.44 292.57S226.47 289.63 260.54 289.63S297.64 276 332.65 276S370.83 297.85 404.76 297.85S441.21 286.83 476.87 286.83S515.37 293.48 548.98 293.48S586.28 295.88 621.09 295.88S659.71 298.1 693.2 298.1S730.73 279.62 765.31 279.62S803.93 306.12 837.41 306.12S875.07 293.29 909.52 293.29S948.16 272.42 981.63 272.42S1020.05 281.42 1053.74 281.42S1092.42 292.32 1125.85 292.32S1162.02 284.46 1197.96 284.46S1235.6 291.35 1270.07 291.35S1308.09 300.51 1342.18 300.51S1379.41 291.88 1414.29 291.88S1452.74 272.45 1486.39 272.45S1524.48 301.97 1558.5 301.97S1595.4 294.69 1630.61 294.69S1668.44 277.41 1702.72 277.41S1739.78 280.15 1774.83 280.15S1812.34 287.91 1846.94 287.91S1884.68 304.32 1919.05 304.32S1957.13 292.3 1991.16 292.3S2029.28 284.98 2063.27 284.98L2020 1080 L-100 1080 Z"></animate>
  <animateTransform attributeName="transform" type="translate" dur="20s" begin="-4s" repeatCount="indefinite" values="0;10;0" calcMode="spline" keySplines="0.3 0 0.7 1;0.3 0 0.7 1"></animateTransform>
</path><path d="M-100 313.08C-61.59 317.78 -60.82 330.27 -25.87 330.27S12.39 298.08 48.25 298.08S87.98 318.66 122.38 318.66S161.04 322.07 196.5 322.07S234.95 301.45 270.63 301.45S310.34 318.79 344.76 318.79S382.28 323.08 418.88 323.08S457.46 311.33 493.01 311.33S530.83 306.06 567.13 306.06S605.2 319.72 641.26 319.72S679.64 334.13 715.38 334.13S753.4 319.86 789.51 319.86S829.05 323.94 863.64 323.94S901.44 321.33 937.76 321.33S975.1 328.83 1011.89 328.83S1050.25 311.94 1086.01 311.94S1123.6 320.07 1160.14 320.07S1198.17 310.19 1234.27 310.19S1272.78 328.01 1308.39 328.01S1346.05 315.84 1382.52 315.84S1422.11 319.67 1456.64 319.67S1494.83 318.56 1530.77 318.56S1569.31 322.86 1604.9 322.86S1642.3 321.04 1679.02 321.04S1716.83 313.94 1753.15 313.94S1791.78 303.71 1827.27 303.71S1864.36 319.69 1901.4 319.69S1940.36 319.4 1975.52 319.4S2013.2 314.45 2049.65 314.45L2020 1080 L-100 1080 Z" fill="#385d62" stroke-width="0">
  <animate attributeName="d" dur="17.5s" repeatCount="indefinite" values="M-100 313.08C-61.59 317.78 -60.82 330.27 -25.87 330.27S12.39 298.08 48.25 298.08S87.98 318.66 122.38 318.66S161.04 322.07 196.5 322.07S234.95 301.45 270.63 301.45S310.34 318.79 344.76 318.79S382.28 323.08 418.88 323.08S457.46 311.33 493.01 311.33S530.83 306.06 567.13 306.06S605.2 319.72 641.26 319.72S679.64 334.13 715.38 334.13S753.4 319.86 789.51 319.86S829.05 323.94 863.64 323.94S901.44 321.33 937.76 321.33S975.1 328.83 1011.89 328.83S1050.25 311.94 1086.01 311.94S1123.6 320.07 1160.14 320.07S1198.17 310.19 1234.27 310.19S1272.78 328.01 1308.39 328.01S1346.05 315.84 1382.52 315.84S1422.11 319.67 1456.64 319.67S1494.83 318.56 1530.77 318.56S1569.31 322.86 1604.9 322.86S1642.3 321.04 1679.02 321.04S1716.83 313.94 1753.15 313.94S1791.78 303.71 1827.27 303.71S1864.36 319.69 1901.4 319.69S1940.36 319.4 1975.52 319.4S2013.2 314.45 2049.65 314.45L2020 1080 L-100 1080 Z;M-100 305.77C-62.19 321.85 -62.52 318.75 -25.87 318.75S11.84 302.67 48.25 302.67S85.78 338.1 122.38 338.1S161.83 316.57 196.5 316.57S235.82 321.3 270.63 321.3S309.88 323.94 344.76 323.94S384.25 323.44 418.88 323.44S458.44 321.86 493.01 321.86S531.24 319.07 567.13 319.07S605.07 309.67 641.26 309.67S680.73 333.93 715.38 333.93S752.79 315.8 789.51 315.8S829.1 325.06 863.64 325.06S901.85 311.18 937.76 311.18S976.43 319.01 1011.89 319.01S1049.24 317.64 1086.01 317.64S1123.43 326.9 1160.14 326.9S1198.44 325.78 1234.27 325.78S1273.06 323.83 1308.39 323.83S1347.89 303.88 1382.52 303.88S1420.85 338.01 1456.64 338.01S1494.09 314.55 1530.77 314.55S1570.09 317.9 1604.9 317.9S1642.34 318.15 1679.02 318.15S1717.61 328.09 1753.15 328.09S1790.82 312.73 1827.27 312.73S1865.85 333.25 1901.4 333.25S1940.36 311.65 1975.52 311.65S2014.41 309.03 2049.65 309.03L2020 1080 L-100 1080 Z;M-100 313.08C-61.59 317.78 -60.82 330.27 -25.87 330.27S12.39 298.08 48.25 298.08S87.98 318.66 122.38 318.66S161.04 322.07 196.5 322.07S234.95 301.45 270.63 301.45S310.34 318.79 344.76 318.79S382.28 323.08 418.88 323.08S457.46 311.33 493.01 311.33S530.83 306.06 567.13 306.06S605.2 319.72 641.26 319.72S679.64 334.13 715.38 334.13S753.4 319.86 789.51 319.86S829.05 323.94 863.64 323.94S901.44 321.33 937.76 321.33S975.1 328.83 1011.89 328.83S1050.25 311.94 1086.01 311.94S1123.6 320.07 1160.14 320.07S1198.17 310.19 1234.27 310.19S1272.78 328.01 1308.39 328.01S1346.05 315.84 1382.52 315.84S1422.11 319.67 1456.64 319.67S1494.83 318.56 1530.77 318.56S1569.31 322.86 1604.9 322.86S1642.3 321.04 1679.02 321.04S1716.83 313.94 1753.15 313.94S1791.78 303.71 1827.27 303.71S1864.36 319.69 1901.4 319.69S1940.36 319.4 1975.52 319.4S2013.2 314.45 2049.65 314.45L2020 1080 L-100 1080 Z"></animate>
  <animateTransform attributeName="transform" type="translate" dur="17.5s" begin="-5.25s" repeatCount="indefinite" values="0;10;0" calcMode="spline" keySplines="0.3 0 0.7 1;0.3 0 0.7 1"></animateTransform>
</path><path d="M-100 337.56C-60.32 328.47 -60.83 355.08 -23.74 355.08S15.47 363.01 52.52 363.01S92.13 350.93 128.78 350.93S169.32 349 205.04 349S245.57 328.84 281.29 328.84S320.32 339.52 357.55 339.52S398.07 346.42 433.81 346.42S472.56 326.58 510.07 326.58S549.61 358.76 586.33 358.76S626.52 333.69 662.59 333.69S703.01 367.86 738.85 367.86S777.41 325.65 815.11 325.65S854.63 360.57 891.37 360.57S931.5 328.43 967.63 328.43S1006.73 353.12 1043.88 353.12S1083.56 332.34 1120.14 332.34S1160.37 361.57 1196.4 361.57S1234.72 328.55 1272.66 328.55S1313.47 349.97 1348.92 349.97S1389.42 335.1 1425.18 335.1S1464.33 367.35 1501.44 367.35S1540.64 324.68 1577.7 324.68S1616.96 360.08 1653.96 360.08S1693.8 350.47 1730.22 350.47S1768.56 363.84 1806.47 363.84S1847.13 324.94 1882.73 324.94S1921.87 359.52 1958.99 359.52S1998.6 343.4 2035.25 343.4L2020 1080 L-100 1080 Z" fill="#466d72" stroke-width="0">
  <animate attributeName="d" dur="15s" repeatCount="indefinite" values="M-100 337.56C-60.32 328.47 -60.83 355.08 -23.74 355.08S15.47 363.01 52.52 363.01S92.13 350.93 128.78 350.93S169.32 349 205.04 349S245.57 328.84 281.29 328.84S320.32 339.52 357.55 339.52S398.07 346.42 433.81 346.42S472.56 326.58 510.07 326.58S549.61 358.76 586.33 358.76S626.52 333.69 662.59 333.69S703.01 367.86 738.85 367.86S777.41 325.65 815.11 325.65S854.63 360.57 891.37 360.57S931.5 328.43 967.63 328.43S1006.73 353.12 1043.88 353.12S1083.56 332.34 1120.14 332.34S1160.37 361.57 1196.4 361.57S1234.72 328.55 1272.66 328.55S1313.47 349.97 1348.92 349.97S1389.42 335.1 1425.18 335.1S1464.33 367.35 1501.44 367.35S1540.64 324.68 1577.7 324.68S1616.96 360.08 1653.96 360.08S1693.8 350.47 1730.22 350.47S1768.56 363.84 1806.47 363.84S1847.13 324.94 1882.73 324.94S1921.87 359.52 1958.99 359.52S1998.6 343.4 2035.25 343.4L2020 1080 L-100 1080 Z;M-100 332.91C-61.6 339.92 -59.19 366.64 -23.74 366.64S15.4 344.17 52.52 344.17S91.7 366.7 128.78 366.7S168.94 338.31 205.04 338.31S243.47 369.49 281.29 369.49S319.73 346.81 357.55 346.81S397.17 367.86 433.81 367.86S474.03 342.85 510.07 342.85S549.32 348.84 586.33 348.84S625.11 335.71 662.59 335.71S701.99 367.97 738.85 367.97S778.67 349.93 815.11 349.93S854.8 370.01 891.37 370.01S931.51 360.33 967.63 360.33S1007.82 346.17 1043.88 346.17S1083.72 350.54 1120.14 350.54S1160.82 356.15 1196.4 356.15S1236.86 342.54 1272.66 342.54S1313.41 351.29 1348.92 351.29S1388.49 367.63 1425.18 367.63S1464.32 350.59 1501.44 350.59S1541.07 346.1 1577.7 346.1S1617.81 348.29 1653.96 348.29S1693.83 326.69 1730.22 326.69S1769.75 357.31 1806.47 357.31S1846.74 363.54 1882.73 363.54S1922.99 345.84 1958.99 345.84S1998.14 340.86 2035.25 340.86L2020 1080 L-100 1080 Z;M-100 337.56C-60.32 328.47 -60.83 355.08 -23.74 355.08S15.47 363.01 52.52 363.01S92.13 350.93 128.78 350.93S169.32 349 205.04 349S245.57 328.84 281.29 328.84S320.32 339.52 357.55 339.52S398.07 346.42 433.81 346.42S472.56 326.58 510.07 326.58S549.61 358.76 586.33 358.76S626.52 333.69 662.59 333.69S703.01 367.86 738.85 367.86S777.41 325.65 815.11 325.65S854.63 360.57 891.37 360.57S931.5 328.43 967.63 328.43S1006.73 353.12 1043.88 353.12S1083.56 332.34 1120.14 332.34S1160.37 361.57 1196.4 361.57S1234.72 328.55 1272.66 328.55S1313.47 349.97 1348.92 349.97S1389.42 335.1 1425.18 335.1S1464.33 367.35 1501.44 367.35S1540.64 324.68 1577.7 324.68S1616.96 360.08 1653.96 360.08S1693.8 350.47 1730.22 350.47S1768.56 363.84 1806.47 363.84S1847.13 324.94 1882.73 324.94S1921.87 359.52 1958.99 359.52S1998.6 343.4 2035.25 343.4L2020 1080 L-100 1080 Z"></animate>
  <animateTransform attributeName="transform" type="translate" dur="15s" begin="-6s" repeatCount="indefinite" values="0;10;0" calcMode="spline" keySplines="0.3 0 0.7 1;0.3 0 0.7 1"></animateTransform>
</path><path d="M-100 358.45C-60.65 366.07 -59.83 384.91 -21.48 384.91S17.9 368.59 57.04 368.59S96.4 379.41 135.56 379.41S175.86 359.07 214.07 359.07S254.19 368.61 292.59 368.61S332.81 355.3 371.11 355.3S411.06 398.27 449.63 398.27S489.61 358.58 528.15 358.58S567.81 383.76 606.67 383.76S647.68 368.6 685.19 368.6S724.6 390.85 763.7 390.85S804.18 400.85 842.22 400.85S883.12 372.85 920.74 372.85S962.47 372.36 999.26 372.36S1040.87 378.08 1077.78 378.08S1119.3 371.57 1156.3 371.57S1196.94 394.02 1234.81 394.02S1274.09 376.84 1313.33 376.84S1355.1 383.13 1391.85 383.13S1432.52 356.51 1470.37 356.51S1511 379.4 1548.89 379.4S1589.27 356.81 1627.41 356.81S1669.24 404.84 1705.93 404.84S1747.54 352.2 1784.44 352.2S1825.84 381.37 1862.96 381.37S1904.36 352.75 1941.48 352.75S1983.4 397.83 2020 397.83S2059.75 356.55 2098.52 356.55L2020 1080 L-100 1080 Z" fill="#547d83" stroke-width="0">
  <animate attributeName="d" dur="12.5s" repeatCount="indefinite" values="M-100 358.45C-60.65 366.07 -59.83 384.91 -21.48 384.91S17.9 368.59 57.04 368.59S96.4 379.41 135.56 379.41S175.86 359.07 214.07 359.07S254.19 368.61 292.59 368.61S332.81 355.3 371.11 355.3S411.06 398.27 449.63 398.27S489.61 358.58 528.15 358.58S567.81 383.76 606.67 383.76S647.68 368.6 685.19 368.6S724.6 390.85 763.7 390.85S804.18 400.85 842.22 400.85S883.12 372.85 920.74 372.85S962.47 372.36 999.26 372.36S1040.87 378.08 1077.78 378.08S1119.3 371.57 1156.3 371.57S1196.94 394.02 1234.81 394.02S1274.09 376.84 1313.33 376.84S1355.1 383.13 1391.85 383.13S1432.52 356.51 1470.37 356.51S1511 379.4 1548.89 379.4S1589.27 356.81 1627.41 356.81S1669.24 404.84 1705.93 404.84S1747.54 352.2 1784.44 352.2S1825.84 381.37 1862.96 381.37S1904.36 352.75 1941.48 352.75S1983.4 397.83 2020 397.83S2059.75 356.55 2098.52 356.55L2020 1080 L-100 1080 Z;M-100 403.44C-58.69 382.92 -58.2 400.14 -21.48 400.14S19.04 383.96 57.04 383.96S97.55 380.57 135.56 380.57S175.22 358.68 214.07 358.68S255.92 392.58 292.59 392.58S334.14 367.95 371.11 367.95S411.28 388.8 449.63 388.8S489.17 354.06 528.15 354.06S568.44 404.13 606.67 404.13S647.92 364.19 685.19 364.19S726.5 393.7 763.7 393.7S804.3 356.08 842.22 356.08S883.88 388.47 920.74 388.47S960.51 363.65 999.26 363.65S1040.3 388.39 1077.78 388.39S1117.43 371.1 1156.3 371.1S1195.79 369.33 1234.81 369.33S1275.26 354.44 1313.33 354.44S1354.14 401.88 1391.85 401.88S1433.24 369.46 1470.37 369.46S1511.5 396.43 1548.89 396.43S1590.32 376.65 1627.41 376.65S1667.33 361.03 1705.93 361.03S1745.93 355.47 1784.44 355.47S1824.59 396.57 1862.96 396.57S1902.53 351.03 1941.48 351.03S1981.07 385.31 2020 385.31S2060.31 361.49 2098.52 361.49L2020 1080 L-100 1080 Z;M-100 358.45C-60.65 366.07 -59.83 384.91 -21.48 384.91S17.9 368.59 57.04 368.59S96.4 379.41 135.56 379.41S175.86 359.07 214.07 359.07S254.19 368.61 292.59 368.61S332.81 355.3 371.11 355.3S411.06 398.27 449.63 398.27S489.61 358.58 528.15 358.58S567.81 383.76 606.67 383.76S647.68 368.6 685.19 368.6S724.6 390.85 763.7 390.85S804.18 400.85 842.22 400.85S883.12 372.85 920.74 372.85S962.47 372.36 999.26 372.36S1040.87 378.08 1077.78 378.08S1119.3 371.57 1156.3 371.57S1196.94 394.02 1234.81 394.02S1274.09 376.84 1313.33 376.84S1355.1 383.13 1391.85 383.13S1432.52 356.51 1470.37 356.51S1511 379.4 1548.89 379.4S1589.27 356.81 1627.41 356.81S1669.24 404.84 1705.93 404.84S1747.54 352.2 1784.44 352.2S1825.84 381.37 1862.96 381.37S1904.36 352.75 1941.48 352.75S1983.4 397.83 2020 397.83S2059.75 356.55 2098.52 356.55L2020 1080 L-100 1080 Z"></animate>
  <animateTransform attributeName="transform" type="translate" dur="12.5s" begin="-6.25s" repeatCount="indefinite" values="0;10;0" calcMode="spline" keySplines="0.3 0 0.7 1;0.3 0 0.7 1"></animateTransform>
</path><path d="M-100 393.3C-57.03 397.82 -58.02 414.94 -19.08 414.94S21.87 387.78 61.83 387.78S103.39 382.9 142.75 382.9S184.79 414.84 223.66 414.84S264.77 421.66 304.58 421.66S346.59 380.2 385.5 380.2S428.14 432.27 466.41 432.27S507.62 395.82 547.33 395.82S589.85 431 628.24 431S669.67 391 709.16 391S752.07 424.98 790.08 424.98S830.97 388.53 870.99 388.53S914.01 391.66 951.91 391.66S994.19 381.42 1032.82 381.42S1073.93 432.49 1113.74 432.49S1155.06 403.49 1194.66 403.49S1237.46 421.92 1275.57 421.92S1318.34 400.75 1356.49 400.75S1398.71 432.36 1437.4 432.36S1480.34 392.91 1518.32 392.91S1561.27 410.86 1599.24 410.86S1641.96 424.45 1680.15 424.45S1720.85 400.47 1761.07 400.47S1801.84 403.87 1841.98 403.87S1883.72 427.37 1922.9 427.37S1964.28 403.48 2003.82 403.48S2044.4 393.86 2084.73 393.86L2020 1080 L-100 1080 Z" fill="#638d94" stroke-width="0">
  <animate attributeName="d" dur="10s" repeatCount="indefinite" values="M-100 393.3C-57.03 397.82 -58.02 414.94 -19.08 414.94S21.87 387.78 61.83 387.78S103.39 382.9 142.75 382.9S184.79 414.84 223.66 414.84S264.77 421.66 304.58 421.66S346.59 380.2 385.5 380.2S428.14 432.27 466.41 432.27S507.62 395.82 547.33 395.82S589.85 431 628.24 431S669.67 391 709.16 391S752.07 424.98 790.08 424.98S830.97 388.53 870.99 388.53S914.01 391.66 951.91 391.66S994.19 381.42 1032.82 381.42S1073.93 432.49 1113.74 432.49S1155.06 403.49 1194.66 403.49S1237.46 421.92 1275.57 421.92S1318.34 400.75 1356.49 400.75S1398.71 432.36 1437.4 432.36S1480.34 392.91 1518.32 392.91S1561.27 410.86 1599.24 410.86S1641.96 424.45 1680.15 424.45S1720.85 400.47 1761.07 400.47S1801.84 403.87 1841.98 403.87S1883.72 427.37 1922.9 427.37S1964.28 403.48 2003.82 403.48S2044.4 393.86 2084.73 393.86L2020 1080 L-100 1080 Z;M-100 427.88C-59.17 428.23 -58.09 416.88 -19.08 416.88S23.32 378.05 61.83 378.05S102.91 433.39 142.75 433.39S185.45 399.49 223.66 399.49S265.81 429.96 304.58 429.96S345.72 398.87 385.5 398.87S428.43 428.94 466.41 428.94S507.06 398.31 547.33 398.31S587.88 426.33 628.24 426.33S668.87 382.02 709.16 382.02S750.83 422.82 790.08 422.82S831.71 396.55 870.99 396.55S912.58 427.22 951.91 427.22S993.75 393.54 1032.82 393.54S1074.71 416.5 1113.74 416.5S1156 378.03 1194.66 378.03S1236.93 423.55 1275.57 423.55S1317.03 422.01 1356.49 422.01S1397.51 429.93 1437.4 429.93S1479.76 381 1518.32 381S1559 424.91 1599.24 424.91S1642.08 421.07 1680.15 421.07S1721.87 417.87 1761.07 417.87S1803.75 436.52 1841.98 436.52S1884.96 424.41 1922.9 424.41S1963.37 382.27 2003.82 382.27S2044.37 421.77 2084.73 421.77L2020 1080 L-100 1080 Z;M-100 393.3C-57.03 397.82 -58.02 414.94 -19.08 414.94S21.87 387.78 61.83 387.78S103.39 382.9 142.75 382.9S184.79 414.84 223.66 414.84S264.77 421.66 304.58 421.66S346.59 380.2 385.5 380.2S428.14 432.27 466.41 432.27S507.62 395.82 547.33 395.82S589.85 431 628.24 431S669.67 391 709.16 391S752.07 424.98 790.08 424.98S830.97 388.53 870.99 388.53S914.01 391.66 951.91 391.66S994.19 381.42 1032.82 381.42S1073.93 432.49 1113.74 432.49S1155.06 403.49 1194.66 403.49S1237.46 421.92 1275.57 421.92S1318.34 400.75 1356.49 400.75S1398.71 432.36 1437.4 432.36S1480.34 392.91 1518.32 392.91S1561.27 410.86 1599.24 410.86S1641.96 424.45 1680.15 424.45S1720.85 400.47 1761.07 400.47S1801.84 403.87 1841.98 403.87S1883.72 427.37 1922.9 427.37S1964.28 403.48 2003.82 403.48S2044.4 393.86 2084.73 393.86L2020 1080 L-100 1080 Z"></animate>
  <animateTransform attributeName="transform" type="translate" dur="10s" begin="-6s" repeatCount="indefinite" values="0;10;0" calcMode="spline" keySplines="0.3 0 0.7 1;0.3 0 0.7 1"></animateTransform>
</path><path d="M-100 408.35C-56.28 405.54 -56.79 468.91 -16.54 468.91S26.56 464.65 66.93 464.65S109.25 469.61 150.39 469.61S192.39 429.56 233.86 429.56S276.15 465.59 317.32 465.59S361.14 425.88 400.79 425.88S444.86 458.91 484.25 458.91S527.1 430.76 567.72 430.76S609.88 463.15 651.18 463.15S695.3 457.34 734.65 457.34S778.12 447.53 818.11 447.53S860.96 422.14 901.57 422.14S943.45 446.23 985.04 446.23S1028.84 425.18 1068.5 425.18S1110.97 412.27 1151.97 412.27S1194.24 428.94 1235.43 428.94S1278.8 450.92 1318.9 450.92S1362.47 431.77 1402.36 431.77S1446.62 453.23 1485.83 453.23S1527.73 407.22 1569.29 407.22S1612.19 450.64 1652.76 450.64S1695.15 423.84 1736.22 423.84S1779.94 453.14 1819.69 453.14S1863.49 421.24 1903.15 421.24S1947.2 465.77 1986.61 465.77S2030.32 430.57 2070.08 430.57L2020 1080 L-100 1080 Z" fill="#719ea5" stroke-width="0">
  <animate attributeName="d" dur="7.5s" repeatCount="indefinite" values="M-100 408.35C-56.28 405.54 -56.79 468.91 -16.54 468.91S26.56 464.65 66.93 464.65S109.25 469.61 150.39 469.61S192.39 429.56 233.86 429.56S276.15 465.59 317.32 465.59S361.14 425.88 400.79 425.88S444.86 458.91 484.25 458.91S527.1 430.76 567.72 430.76S609.88 463.15 651.18 463.15S695.3 457.34 734.65 457.34S778.12 447.53 818.11 447.53S860.96 422.14 901.57 422.14S943.45 446.23 985.04 446.23S1028.84 425.18 1068.5 425.18S1110.97 412.27 1151.97 412.27S1194.24 428.94 1235.43 428.94S1278.8 450.92 1318.9 450.92S1362.47 431.77 1402.36 431.77S1446.62 453.23 1485.83 453.23S1527.73 407.22 1569.29 407.22S1612.19 450.64 1652.76 450.64S1695.15 423.84 1736.22 423.84S1779.94 453.14 1819.69 453.14S1863.49 421.24 1903.15 421.24S1947.2 465.77 1986.61 465.77S2030.32 430.57 2070.08 430.57L2020 1080 L-100 1080 Z;M-100 424.55C-57.94 429.45 -56.41 413.72 -16.54 413.72S27.47 414.75 66.93 414.75S110.43 457.22 150.39 457.22S192.74 426.57 233.86 426.57S277.75 457.21 317.32 457.21S360.88 423.03 400.79 423.03S443.36 462.14 484.25 462.14S526.48 405.57 567.72 405.57S611.2 467.38 651.18 467.38S695.52 416.81 734.65 416.81S777.6 462.8 818.11 462.8S861.8 423.66 901.57 423.66S943.4 408.27 985.04 408.27S1028.61 429.88 1068.5 429.88S1110.62 454.33 1151.97 454.33S1195.18 407.46 1235.43 407.46S1277.4 461.87 1318.9 461.87S1362.36 405.22 1402.36 405.22S1444.34 466.59 1485.83 466.59S1530.09 421.03 1569.29 421.03S1612.3 450.84 1652.76 450.84S1695.63 446.31 1736.22 446.31S1778.35 458.14 1819.69 458.14S1863.92 426.7 1903.15 426.7S1947.06 467.18 1986.61 467.18S2029.64 407.86 2070.08 407.86L2020 1080 L-100 1080 Z;M-100 408.35C-56.28 405.54 -56.79 468.91 -16.54 468.91S26.56 464.65 66.93 464.65S109.25 469.61 150.39 469.61S192.39 429.56 233.86 429.56S276.15 465.59 317.32 465.59S361.14 425.88 400.79 425.88S444.86 458.91 484.25 458.91S527.1 430.76 567.72 430.76S609.88 463.15 651.18 463.15S695.3 457.34 734.65 457.34S778.12 447.53 818.11 447.53S860.96 422.14 901.57 422.14S943.45 446.23 985.04 446.23S1028.84 425.18 1068.5 425.18S1110.97 412.27 1151.97 412.27S1194.24 428.94 1235.43 428.94S1278.8 450.92 1318.9 450.92S1362.47 431.77 1402.36 431.77S1446.62 453.23 1485.83 453.23S1527.73 407.22 1569.29 407.22S1612.19 450.64 1652.76 450.64S1695.15 423.84 1736.22 423.84S1779.94 453.14 1819.69 453.14S1863.49 421.24 1903.15 421.24S1947.2 465.77 1986.61 465.77S2030.32 430.57 2070.08 430.57L2020 1080 L-100 1080 Z"></animate>
  <animateTransform attributeName="transform" type="translate" dur="7.5s" begin="-5.25s" repeatCount="indefinite" values="0;10;0" calcMode="spline" keySplines="0.3 0 0.7 1;0.3 0 0.7 1"></animateTransform>
</path><path d="M-100 457.02C-54.41 444.81 -54.72 499.2 -13.82 499.2S29.56 454.72 72.36 454.72S116.85 494.22 158.54 494.22S203.23 447.82 244.72 447.82S290.11 477.45 330.89 477.45S375.99 437.56 417.07 437.56S460.52 476.26 503.25 476.26S547.89 452.65 589.43 452.65S633.92 476.82 675.61 476.82S720.56 437.99 761.79 437.99S805.91 481.66 847.97 481.66S893.4 447.71 934.15 447.71S978.53 483.44 1020.33 483.44S1065.51 499.15 1106.5 499.15S1150.12 485.28 1192.68 485.28S1237.45 457.32 1278.86 457.32S1322.07 494.18 1365.04 494.18S1409.77 436.32 1451.22 436.32S1496.39 499.5 1537.4 499.5S1580.94 483.53 1623.58 483.53S1666.97 488.63 1709.76 488.63S1753.91 450.88 1795.93 450.88S1841.3 501.53 1882.11 501.53S1927.23 451.37 1968.29 451.37S2011.97 491.23 2054.47 491.23L2020 1080 L-100 1080 Z" fill="#81afb7" stroke-width="0">
  <animate attributeName="d" dur="5s" repeatCount="indefinite" values="M-100 457.02C-54.41 444.81 -54.72 499.2 -13.82 499.2S29.56 454.72 72.36 454.72S116.85 494.22 158.54 494.22S203.23 447.82 244.72 447.82S290.11 477.45 330.89 477.45S375.99 437.56 417.07 437.56S460.52 476.26 503.25 476.26S547.89 452.65 589.43 452.65S633.92 476.82 675.61 476.82S720.56 437.99 761.79 437.99S805.91 481.66 847.97 481.66S893.4 447.71 934.15 447.71S978.53 483.44 1020.33 483.44S1065.51 499.15 1106.5 499.15S1150.12 485.28 1192.68 485.28S1237.45 457.32 1278.86 457.32S1322.07 494.18 1365.04 494.18S1409.77 436.32 1451.22 436.32S1496.39 499.5 1537.4 499.5S1580.94 483.53 1623.58 483.53S1666.97 488.63 1709.76 488.63S1753.91 450.88 1795.93 450.88S1841.3 501.53 1882.11 501.53S1927.23 451.37 1968.29 451.37S2011.97 491.23 2054.47 491.23L2020 1080 L-100 1080 Z;M-100 441.14C-54.69 435.89 -56.67 488.99 -13.82 488.99S30.71 437.08 72.36 437.08S118.08 486.34 158.54 486.34S203.44 457.41 244.72 457.41S289.58 441.14 330.89 441.14S375.25 458.14 417.07 458.14S462.54 491.63 503.25 491.63S547.33 493.81 589.43 493.81S634.34 492.21 675.61 492.21S718.96 434.51 761.79 434.51S807.47 481.26 847.97 481.26S892.91 435.31 934.15 435.31S978.67 450.39 1020.33 450.39S1063.89 442.42 1106.5 442.42S1151.04 496.57 1192.68 496.57S1237.42 452.22 1278.86 452.22S1322.91 478.69 1365.04 478.69S1409.27 479.08 1451.22 479.08S1495.46 484.08 1537.4 484.08S1582.6 436 1623.58 436S1668.91 438.16 1709.76 438.16S1752.89 441.47 1795.93 441.47S1839.92 499.57 1882.11 499.57S1925.64 477.15 1968.29 477.15S2012.83 484.53 2054.47 484.53L2020 1080 L-100 1080 Z;M-100 457.02C-54.41 444.81 -54.72 499.2 -13.82 499.2S29.56 454.72 72.36 454.72S116.85 494.22 158.54 494.22S203.23 447.82 244.72 447.82S290.11 477.45 330.89 477.45S375.99 437.56 417.07 437.56S460.52 476.26 503.25 476.26S547.89 452.65 589.43 452.65S633.92 476.82 675.61 476.82S720.56 437.99 761.79 437.99S805.91 481.66 847.97 481.66S893.4 447.71 934.15 447.71S978.53 483.44 1020.33 483.44S1065.51 499.15 1106.5 499.15S1150.12 485.28 1192.68 485.28S1237.45 457.32 1278.86 457.32S1322.07 494.18 1365.04 494.18S1409.77 436.32 1451.22 436.32S1496.39 499.5 1537.4 499.5S1580.94 483.53 1623.58 483.53S1666.97 488.63 1709.76 488.63S1753.91 450.88 1795.93 450.88S1841.3 501.53 1882.11 501.53S1927.23 451.37 1968.29 451.37S2011.97 491.23 2054.47 491.23L2020 1080 L-100 1080 Z"></animate>
  <animateTransform attributeName="transform" type="translate" dur="5s" begin="-4s" repeatCount="indefinite" values="0;10;0" calcMode="spline" keySplines="0.3 0 0.7 1;0.3 0 0.7 1"></animateTransform>
</path><path d="M-100 515.94C-54.8 519.23 -55.01 509.8 -10.92 509.8S34.28 482.1 78.15 482.1S123.96 507.82 167.23 507.82S212.49 467.08 256.3 467.08S302.64 479.99 345.38 479.99S391.51 512.69 434.45 512.69S480.69 464.14 523.53 464.14S568.88 459.54 612.61 459.54S658.14 525.33 701.68 525.33S748.31 473.64 790.76 473.64S835.63 511.56 879.83 511.56S925.72 464.4 968.91 464.4S1013.92 533.17 1057.98 533.17S1104.3 465.09 1147.06 465.09S1191.6 516.55 1236.13 516.55S1282.02 520.76 1325.21 520.76S1371.38 520.27 1414.29 520.27S1459.33 480.45 1503.36 480.45S1549.74 471.26 1592.44 471.26S1637.93 465.3 1681.51 465.3S1728.25 522.6 1770.59 522.6S1816.32 514.81 1859.66 514.81S1906.13 523.63 1948.74 523.63S1994.76 480.55 2037.82 480.55L2020 1080 L-100 1080 Z" fill="#90c0c9" stroke-width="0">
  <animate attributeName="d" dur="2.5s" repeatCount="indefinite" values="M-100 515.94C-54.8 519.23 -55.01 509.8 -10.92 509.8S34.28 482.1 78.15 482.1S123.96 507.82 167.23 507.82S212.49 467.08 256.3 467.08S302.64 479.99 345.38 479.99S391.51 512.69 434.45 512.69S480.69 464.14 523.53 464.14S568.88 459.54 612.61 459.54S658.14 525.33 701.68 525.33S748.31 473.64 790.76 473.64S835.63 511.56 879.83 511.56S925.72 464.4 968.91 464.4S1013.92 533.17 1057.98 533.17S1104.3 465.09 1147.06 465.09S1191.6 516.55 1236.13 516.55S1282.02 520.76 1325.21 520.76S1371.38 520.27 1414.29 520.27S1459.33 480.45 1503.36 480.45S1549.74 471.26 1592.44 471.26S1637.93 465.3 1681.51 465.3S1728.25 522.6 1770.59 522.6S1816.32 514.81 1859.66 514.81S1906.13 523.63 1948.74 523.63S1994.76 480.55 2037.82 480.55L2020 1080 L-100 1080 Z;M-100 511.59C-54.51 528.19 -54.5 516.92 -10.92 516.92S35.78 480.55 78.15 480.55S124.44 523.84 167.23 523.84S213.55 461.15 256.3 461.15S301.85 513.76 345.38 513.76S392.17 460.08 434.45 460.08S480.9 514.8 523.53 514.8S569.55 485.77 612.61 485.77S657.86 509.26 701.68 509.26S747.92 471.9 790.76 471.9S835.36 515.46 879.83 515.46S924.92 514.04 968.91 514.04S1015.57 468.11 1057.98 468.11S1103.5 522.39 1147.06 522.39S1192.54 517.09 1236.13 517.09S1280.76 474.07 1325.21 474.07S1371.07 530.43 1414.29 530.43S1461.4 472.02 1503.36 472.02S1549.71 515.29 1592.44 515.29S1637.46 461.77 1681.51 461.77S1726.09 480.66 1770.59 480.66S1816.9 471.76 1859.66 471.76S1905.97 525.84 1948.74 525.84S1993.4 467.89 2037.82 467.89L2020 1080 L-100 1080 Z;M-100 515.94C-54.8 519.23 -55.01 509.8 -10.92 509.8S34.28 482.1 78.15 482.1S123.96 507.82 167.23 507.82S212.49 467.08 256.3 467.08S302.64 479.99 345.38 479.99S391.51 512.69 434.45 512.69S480.69 464.14 523.53 464.14S568.88 459.54 612.61 459.54S658.14 525.33 701.68 525.33S748.31 473.64 790.76 473.64S835.63 511.56 879.83 511.56S925.72 464.4 968.91 464.4S1013.92 533.17 1057.98 533.17S1104.3 465.09 1147.06 465.09S1191.6 516.55 1236.13 516.55S1282.02 520.76 1325.21 520.76S1371.38 520.27 1414.29 520.27S1459.33 480.45 1503.36 480.45S1549.74 471.26 1592.44 471.26S1637.93 465.3 1681.51 465.3S1728.25 522.6 1770.59 522.6S1816.32 514.81 1859.66 514.81S1906.13 523.63 1948.74 523.63S1994.76 480.55 2037.82 480.55L2020 1080 L-100 1080 Z"></animate>
  <animateTransform attributeName="transform" type="translate" dur="2.5s" begin="-2.25s" repeatCount="indefinite" values="0;10;0" calcMode="spline" keySplines="0.3 0 0.7 1;0.3 0 0.7 1"></animateTransform>
</path></g>
</svg>