<?xml version="1.0" encoding="iso-8859-1"?>
<!-- Generator: Adobe Illustrator 19.0.0, SVG Export Plug-In . SVG Version: 6.00 Build 0)  -->
<svg version="1.1" id="Capa_1" xmlns="http://www.w3.org/2000/svg" xmlns:xlink="http://www.w3.org/1999/xlink" x="0px" y="0px"
	 viewBox="0 0 368 368" style="enable-background:new 0 0 368 368;" xml:space="preserve">
<g>
	<g>
		<g>
			<path d="M333.864,82.56h-0.008c0-0.048-0.016-0.024-0.016-0.024h-0.008c-0.056-0.064-0.12-0.128-0.176-0.184l-80-80
				C252.16,0.848,250.128,0,248,0h-15.64c-0.232,0-0.488,0-0.72,0H56C42.76,0,32,10.768,32,24v320c0,13.232,10.768,24,24,24h256
				c13.232,0,24-10.768,24-24V88C336,85.896,335.184,83.984,333.864,82.56z M320,344c0,4.408-3.584,8-8,8H55.992
				c-4.408,0-8-3.592-8-8V24c0-4.408,3.592-8,8-8h168v32H88c-4.416,0-8,3.584-8,8v48c0,4.416,3.584,8,8,8s8-3.584,8-8V64h128v40
				c0,4.416,3.576,8,8,8h88V344z M320,96h-80V16h4.688L320,91.32V96z"/>
			<path d="M226.344,242.352L192,276.688V136c0-4.416-3.584-8-8-8c-4.416,0-8,3.584-8,8v140.688l-34.344-34.344
				c-3.128-3.128-8.184-3.128-11.312,0c-1.56,1.56-2.344,3.608-2.344,5.656c0,2.048,0.784,4.096,2.344,5.656l48,48
				c1.424,1.424,3.256,2.2,5.12,2.328h0.008C183.648,304,183.824,304,184,304c0.328,0,0.656-0.016,0.976-0.056
				c0.008,0,0.008,0,0.016,0c1.536-0.192,3.024-0.832,4.264-1.904c0.152-0.136,0.296-0.272,0.44-0.416l47.96-47.96
				c3.128-3.128,3.128-8.184,0-11.312C234.528,239.224,229.472,239.224,226.344,242.352z"/>
		</g>
	</g>
</g>
<g>
</g>
<g>
</g>
<g>
</g>
<g>
</g>
<g>
</g>
<g>
</g>
<g>
</g>
<g>
</g>
<g>
</g>
<g>
</g>
<g>
</g>
<g>
</g>
<g>
</g>
<g>
</g>
<g>
</g>
</svg>
