<?xml version="1.0" encoding="UTF-8" standalone="no"?>
<!DOCTYPE svg PUBLIC "-//W3C//DTD SVG 1.1//EN" "http://www.w3.org/Graphics/SVG/1.1/DTD/svg11.dtd">
<svg version="1.1" xmlns="http://www.w3.org/2000/svg" xmlns:xlink="http://www.w3.org/1999/xlink" preserveAspectRatio="xMidYMid meet" viewBox="0 0 640 640" width="640" height="640"><defs><path d="M0 320C0 496.73 143.27 640 320 640C496.73 640 640 496.73 640 320C640 143.27 496.73 0 320 0C143.27 0 0 143.27 0 320ZM40 320C40 165.36 165.36 40 320 40C474.64 40 600 165.36 600 320C600 474.64 474.64 600 320 600C165.36 600 40 474.64 40 320Z" id="b1lDSt8lhI"></path><path d="M320 280C297.91 280 280 297.91 280 320C280 342.09 297.91 360 320 360C342.09 360 360 342.09 360 320C360 297.91 342.09 280 320 280Z" id="ahDEKSnG0"></path><path d="M460 280C437.91 280 420 297.91 420 320C420 342.09 437.91 360 460 360C482.09 360 500 342.09 500 320C500 297.91 482.09 280 460 280Z" id="afR5dxJEQ"></path><path d="M178.52 280C156.43 280 138.52 297.91 138.52 320C138.52 342.09 156.43 360 178.52 360C200.61 360 218.52 342.09 218.52 320C218.52 297.91 200.61 280 178.52 280Z" id="bG4wmdhDa"></path></defs><g><g><g><use xlink:href="#b1lDSt8lhI" opacity="1" fill="#db5461" fill-opacity="1"></use><g><use xlink:href="#b1lDSt8lhI" opacity="1" fill-opacity="0" stroke="#000000" stroke-width="1" stroke-opacity="0"></use></g></g><g><use xlink:href="#ahDEKSnG0" opacity="1" fill="#db5461" fill-opacity="1"></use><g><use xlink:href="#ahDEKSnG0" opacity="1" fill-opacity="0" stroke="#000000" stroke-width="1" stroke-opacity="0"></use></g></g><g><use xlink:href="#afR5dxJEQ" opacity="1" fill="#db5461" fill-opacity="1"></use><g><use xlink:href="#afR5dxJEQ" opacity="1" fill-opacity="0" stroke="#000000" stroke-width="1" stroke-opacity="0"></use></g></g><g><use xlink:href="#bG4wmdhDa" opacity="1" fill="#db5461" fill-opacity="1"></use><g><use xlink:href="#bG4wmdhDa" opacity="1" fill-opacity="0" stroke="#000000" stroke-width="1" stroke-opacity="0"></use></g></g></g></g></svg>