<?xml version="1.0" encoding="UTF-8" standalone="no"?>
<!DOCTYPE svg PUBLIC "-//W3C//DTD SVG 1.1//EN" "http://www.w3.org/Graphics/SVG/1.1/DTD/svg11.dtd">
<svg version="1.1" xmlns="http://www.w3.org/2000/svg" xmlns:xlink="http://www.w3.org/1999/xlink" preserveAspectRatio="xMidYMid meet" viewBox="0 0 640 640" width="640" height="640"><defs><path d="M218.88 632.78C234.88 635.74 240.72 625.82 240.72 617.3C240.72 609.66 240.44 589.46 240.28 562.66C151.28 582.06 132.48 519.58 132.48 519.58C117.96 482.46 96.96 472.58 96.96 472.58C67.88 452.66 99.12 453.06 99.12 453.06C131.24 455.34 148.12 486.18 148.12 486.18C176.68 535.26 223.04 521.1 241.28 512.86C244.16 492.1 252.44 477.94 261.6 469.9C190.56 461.78 115.84 434.22 115.84 311.14C115.84 276.06 128.32 247.38 148.8 224.9C145.48 216.78 134.52 184.1 151.92 139.9C151.92 139.9 178.8 131.26 239.92 172.82C265.44 165.7 292.8 162.14 320.04 162.02C347.2 162.18 374.6 165.7 400.16 172.86C461.24 131.3 488.08 139.94 488.08 139.94C505.52 184.18 494.56 216.82 491.28 224.94C511.8 247.42 524.16 276.1 524.16 311.18C524.16 434.58 449.36 461.74 378.08 469.7C389.56 479.62 399.8 499.22 399.8 529.18C399.8 572.14 399.4 606.78 399.4 617.3C399.4 625.9 405.16 635.9 421.4 632.74C548.4 590.18 640 469.82 640 327.94C640 150.5 496.72 6.66 319.96 6.66C143.28 6.66 0 150.5 0 327.94C0 469.86 91.68 590.26 218.88 632.78Z" id="bwPp92rGj"></path><path d="M218.88 632.78C234.88 635.74 240.72 625.82 240.72 617.3C240.72 609.66 240.44 589.46 240.28 562.66C151.28 582.06 132.48 519.58 132.48 519.58C117.96 482.46 96.96 472.58 96.96 472.58C67.88 452.66 99.12 453.06 99.12 453.06C131.24 455.34 148.12 486.18 148.12 486.18C176.68 535.26 223.04 521.1 241.28 512.86C244.16 492.1 252.44 477.94 261.6 469.9C190.56 461.78 115.84 434.22 115.84 311.14C115.84 276.06 128.32 247.38 148.8 224.9C145.48 216.78 134.52 184.1 151.92 139.9C151.92 139.9 178.8 131.26 239.92 172.82C265.44 165.7 292.8 162.14 320.04 162.02C347.2 162.18 374.6 165.7 400.16 172.86C461.24 131.3 488.08 139.94 488.08 139.94C505.52 184.18 494.56 216.82 491.28 224.94C511.8 247.42 524.16 276.1 524.16 311.18C524.16 434.58 449.36 461.74 378.08 469.7C389.56 479.62 399.8 499.22 399.8 529.18C399.8 572.14 399.4 606.78 399.4 617.3C399.4 625.9 405.16 635.9 421.4 632.74C548.4 590.18 640 469.82 640 327.94C640 150.5 496.72 6.66 319.96 6.66C143.28 6.66 0 150.5 0 327.94C0 469.86 91.68 590.26 218.88 632.78Z" id="a3qyUg7nMQ"></path></defs><g><g><g><use xlink:href="#bwPp92rGj" opacity="1" fill="#db5461" fill-opacity="1"></use><g><use xlink:href="#bwPp92rGj" opacity="1" fill-opacity="0" stroke="#000000" stroke-width="1" stroke-opacity="0"></use></g></g><g><use xlink:href="#a3qyUg7nMQ" opacity="1" fill="#db5461" fill-opacity="1"></use><g><use xlink:href="#a3qyUg7nMQ" opacity="1" fill-opacity="0" stroke="#000000" stroke-width="0" stroke-opacity="0"></use></g></g></g></g></svg>