<?xml version="1.0" encoding="UTF-8" standalone="no"?>
<!DOCTYPE svg PUBLIC "-//W3C//DTD SVG 1.1//EN" "http://www.w3.org/Graphics/SVG/1.1/DTD/svg11.dtd">
<svg version="1.1" xmlns="http://www.w3.org/2000/svg" xmlns:xlink="http://www.w3.org/1999/xlink" preserveAspectRatio="xMidYMid meet" viewBox="0 0 640 640" width="640" height="640"><defs><path d="M0 320C0 496.46 143.54 640 320 640C496.46 640 640 496.43 640 320C640 143.57 496.46 0 320 0C143.54 0 0 143.54 0 320ZM49.57 320C49.57 170.88 170.91 49.57 320 49.57C469.09 49.57 590.43 170.88 590.43 320C590.43 469.12 469.12 590.43 320 590.43C170.91 590.43 49.57 469.12 49.57 320Z" id="cTDs7BhsS"></path><path d="M344.79 295.21C344.79 235.72 344.79 202.67 344.79 196.07C344.79 182.38 333.71 171.28 320 171.28C306.29 171.28 295.21 182.38 295.21 196.07C295.21 202.67 295.21 235.72 295.21 295.21C235.72 295.21 202.67 295.21 196.07 295.21C182.36 295.21 171.28 306.32 171.28 320C171.28 333.68 182.36 344.79 196.07 344.79C202.67 344.79 235.72 344.79 295.21 344.79C295.21 404.28 295.21 437.33 295.21 443.93C295.21 457.62 306.29 468.72 320 468.72C333.71 468.72 344.79 457.62 344.79 443.93C344.79 437.33 344.79 404.28 344.79 344.79C404.28 344.79 437.33 344.79 443.93 344.79C457.64 344.79 468.72 333.68 468.72 320C468.72 306.32 457.64 295.21 443.94 295.21C430.72 295.21 397.67 295.21 344.79 295.21Z" id="d22fPUciaA"></path></defs><g><g><g><use xlink:href="#cTDs7BhsS" opacity="1" fill="#db5461" fill-opacity="1"></use><g><use xlink:href="#cTDs7BhsS" opacity="1" fill-opacity="0" stroke="#000000" stroke-width="1" stroke-opacity="0"></use></g></g><g><use xlink:href="#d22fPUciaA" opacity="1" fill="#db5461" fill-opacity="1"></use><g><use xlink:href="#d22fPUciaA" opacity="1" fill-opacity="0" stroke="#000000" stroke-width="1" stroke-opacity="0"></use></g></g></g></g></svg>