<?xml version="1.0" encoding="UTF-8" standalone="no"?>
<!DOCTYPE svg PUBLIC "-//W3C//DTD SVG 1.1//EN" "http://www.w3.org/Graphics/SVG/1.1/DTD/svg11.dtd">
<svg version="1.1" xmlns="http://www.w3.org/2000/svg" xmlns:xlink="http://www.w3.org/1999/xlink" preserveAspectRatio="xMidYMid meet" viewBox="0 0 640 640" width="640" height="640"><defs><path d="M0 320C0 496.73 143.27 640 320 640C496.73 640 640 496.73 640 320C640 143.27 496.73 0 320 0C143.27 0 0 143.27 0 320ZM40 320C40 165.36 165.36 40 320 40C474.64 40 600 165.36 600 320C600 474.64 474.64 600 320 600C165.36 600 40 474.64 40 320Z" id="a24vKTfhEO"></path><path d="M204.81 182.91L292.24 183.74L291.87 223L243.7 222.54L243.7 417.37L292.24 417.83L291.87 457.09L243.7 456.63L243.7 457.09L204.44 457.09L204.44 185.97L204.79 185.97L204.81 182.91Z" id="aGuBFNZG"></path><path d="M430.76 417.83L430.76 454.03L430.42 454.03L430.39 457.09L342.96 456.26L343.33 417L391.5 417.46L391.5 222.63L342.96 222.17L343.33 182.91L391.5 183.37L391.5 182.91L430.76 182.91L430.76 183.74L430.76 183.74L430.76 417.83L430.76 417.83Z" id="aauhq63pD"></path></defs><g><g><g><use xlink:href="#a24vKTfhEO" opacity="1" fill="#f8c7cc" fill-opacity="1"></use><g><use xlink:href="#a24vKTfhEO" opacity="1" fill-opacity="0" stroke="#000000" stroke-width="1" stroke-opacity="0"></use></g></g><g><use xlink:href="#aGuBFNZG" opacity="1" fill="#f8c7cc" fill-opacity="1"></use></g><g><use xlink:href="#aauhq63pD" opacity="1" fill="#f8c7cc" fill-opacity="1"></use></g></g></g></svg>