<?xml version="1.0" encoding="UTF-8" standalone="no"?>
<!DOCTYPE svg PUBLIC "-//W3C//DTD SVG 1.1//EN" "http://www.w3.org/Graphics/SVG/1.1/DTD/svg11.dtd">
<svg version="1.1" xmlns="http://www.w3.org/2000/svg" xmlns:xlink="http://www.w3.org/1999/xlink" preserveAspectRatio="xMidYMid meet" viewBox="0 0 640 640" width="640" height="640"><defs><path d="M40 320C40 474.64 165.36 600 320 600C474.64 600 600 474.64 600 320C600 165.36 474.64 40 320 40C165.36 40 40 165.36 40 320ZM80 320C80 187.45 187.45 80 320 80C452.55 80 560 187.45 560 320C560 452.55 452.55 560 320 560C187.45 560 80 452.55 80 320Z" id="anuoioJuQ"></path><path d="M322.26 280.31L428.14 386.02L456.52 357.8C392.87 294.37 357.5 259.14 350.43 252.09C334.82 236.59 309.62 236.61 294.03 252.13C286.97 259.19 251.67 294.49 188.12 358.02L216.54 386.2L322.26 280.31Z" id="co9fZ74AK"></path></defs><g><g><g><use xlink:href="#anuoioJuQ" opacity="1" fill="#a0d2db" fill-opacity="1"></use><g><use xlink:href="#anuoioJuQ" opacity="1" fill-opacity="0" stroke="#f8c7cc" stroke-width="0" stroke-opacity="0"></use></g></g><g><use xlink:href="#co9fZ74AK" opacity="1" fill="#a0d2db" fill-opacity="1"></use><g><use xlink:href="#co9fZ74AK" opacity="1" fill-opacity="0" stroke="#000000" stroke-width="1" stroke-opacity="0"></use></g></g></g></g></svg>